ISO-10303-21;
HEADER;
/* Generated by software containing ST-Developer
 * from STEP Tools, Inc. (www.steptools.com) 
 */

FILE_DESCRIPTION(
/* description */ (''),
/* implementation_level */ '2;1');

FILE_NAME(
/* name */ 'RaspberryPi_ZeroW2Holder.step',
/* time_stamp */ '2026-06-02T20:14:05+02:00',
/* author */ (''),
/* organization */ (''),
/* preprocessor_version */ 'ST-DEVELOPER v20.1',
/* originating_system */ 'Autodesk Translation Framework v15.8.0.0',
/* authorisation */ '');

FILE_SCHEMA (('AUTOMOTIVE_DESIGN { 1 0 10303 214 3 1 1 }'));
ENDSEC;

DATA;
#10=MECHANICAL_DESIGN_GEOMETRIC_PRESENTATION_REPRESENTATION('',(#13),#843);
#11=SHAPE_REPRESENTATION_RELATIONSHIP('SRR','None',#850,#12);
#12=ADVANCED_BREP_SHAPE_REPRESENTATION('',(#14),#842);
#13=STYLED_ITEM('',(#859),#14);
#14=MANIFOLD_SOLID_BREP('Body1',#527);
#15=FACE_OUTER_BOUND('',#41,.T.);
#16=FACE_OUTER_BOUND('',#42,.T.);
#17=FACE_OUTER_BOUND('',#43,.T.);
#18=FACE_OUTER_BOUND('',#44,.T.);
#19=FACE_OUTER_BOUND('',#45,.T.);
#20=FACE_OUTER_BOUND('',#46,.T.);
#21=FACE_OUTER_BOUND('',#47,.T.);
#22=FACE_OUTER_BOUND('',#48,.T.);
#23=FACE_OUTER_BOUND('',#49,.T.);
#24=FACE_OUTER_BOUND('',#50,.T.);
#25=FACE_OUTER_BOUND('',#51,.T.);
#26=FACE_OUTER_BOUND('',#52,.T.);
#27=FACE_OUTER_BOUND('',#53,.T.);
#28=FACE_OUTER_BOUND('',#54,.T.);
#29=FACE_OUTER_BOUND('',#55,.T.);
#30=FACE_OUTER_BOUND('',#56,.T.);
#31=FACE_OUTER_BOUND('',#57,.T.);
#32=FACE_OUTER_BOUND('',#58,.T.);
#33=FACE_OUTER_BOUND('',#59,.T.);
#34=FACE_OUTER_BOUND('',#60,.T.);
#35=FACE_OUTER_BOUND('',#61,.T.);
#36=FACE_OUTER_BOUND('',#62,.T.);
#37=FACE_OUTER_BOUND('',#63,.T.);
#38=FACE_OUTER_BOUND('',#64,.T.);
#39=FACE_OUTER_BOUND('',#65,.T.);
#40=FACE_OUTER_BOUND('',#66,.T.);
#41=EDGE_LOOP('',(#331,#332,#333,#334));
#42=EDGE_LOOP('',(#335,#336,#337,#338));
#43=EDGE_LOOP('',(#339,#340,#341,#342,#343,#344,#345,#346));
#44=EDGE_LOOP('',(#347,#348,#349,#350));
#45=EDGE_LOOP('',(#351,#352,#353,#354));
#46=EDGE_LOOP('',(#355,#356,#357,#358,#359,#360));
#47=EDGE_LOOP('',(#361,#362,#363,#364));
#48=EDGE_LOOP('',(#365,#366,#367,#368));
#49=EDGE_LOOP('',(#369,#370,#371,#372));
#50=EDGE_LOOP('',(#373,#374,#375,#376));
#51=EDGE_LOOP('',(#377,#378,#379,#380));
#52=EDGE_LOOP('',(#381,#382,#383,#384,#385,#386,#387,#388,#389,#390,#391,
#392,#393,#394,#395,#396,#397,#398,#399,#400));
#53=EDGE_LOOP('',(#401,#402,#403,#404,#405,#406,#407,#408));
#54=EDGE_LOOP('',(#409,#410,#411,#412,#413,#414,#415,#416));
#55=EDGE_LOOP('',(#417,#418,#419,#420));
#56=EDGE_LOOP('',(#421,#422,#423,#424));
#57=EDGE_LOOP('',(#425,#426,#427,#428));
#58=EDGE_LOOP('',(#429,#430,#431,#432));
#59=EDGE_LOOP('',(#433,#434,#435,#436));
#60=EDGE_LOOP('',(#437,#438,#439,#440,#441,#442));
#61=EDGE_LOOP('',(#443,#444,#445,#446));
#62=EDGE_LOOP('',(#447,#448,#449,#450));
#63=EDGE_LOOP('',(#451,#452,#453,#454));
#64=EDGE_LOOP('',(#455,#456,#457,#458));
#65=EDGE_LOOP('',(#459,#460,#461,#462,#463,#464,#465,#466,#467,#468,#469,
#470));
#66=EDGE_LOOP('',(#471,#472,#473,#474));
#67=LINE('',#697,#139);
#68=LINE('',#699,#140);
#69=LINE('',#701,#141);
#70=LINE('',#702,#142);
#71=LINE('',#706,#143);
#72=LINE('',#708,#144);
#73=LINE('',#710,#145);
#74=LINE('',#711,#146);
#75=LINE('',#713,#147);
#76=LINE('',#715,#148);
#77=LINE('',#717,#149);
#78=LINE('',#719,#150);
#79=LINE('',#721,#151);
#80=LINE('',#722,#152);
#81=LINE('',#725,#153);
#82=LINE('',#727,#154);
#83=LINE('',#728,#155);
#84=LINE('',#731,#156);
#85=LINE('',#733,#157);
#86=LINE('',#734,#158);
#87=LINE('',#737,#159);
#88=LINE('',#739,#160);
#89=LINE('',#740,#161);
#90=LINE('',#744,#162);
#91=LINE('',#746,#163);
#92=LINE('',#748,#164);
#93=LINE('',#749,#165);
#94=LINE('',#752,#166);
#95=LINE('',#754,#167);
#96=LINE('',#755,#168);
#97=LINE('',#757,#169);
#98=LINE('',#758,#170);
#99=LINE('',#762,#171);
#100=LINE('',#764,#172);
#101=LINE('',#766,#173);
#102=LINE('',#767,#174);
#103=LINE('',#770,#175);
#104=LINE('',#772,#176);
#105=LINE('',#773,#177);
#106=LINE('',#775,#178);
#107=LINE('',#777,#179);
#108=LINE('',#779,#180);
#109=LINE('',#781,#181);
#110=LINE('',#783,#182);
#111=LINE('',#785,#183);
#112=LINE('',#787,#184);
#113=LINE('',#789,#185);
#114=LINE('',#791,#186);
#115=LINE('',#792,#187);
#116=LINE('',#795,#188);
#117=LINE('',#797,#189);
#118=LINE('',#799,#190);
#119=LINE('',#801,#191);
#120=LINE('',#802,#192);
#121=LINE('',#804,#193);
#122=LINE('',#807,#194);
#123=LINE('',#808,#195);
#124=LINE('',#810,#196);
#125=LINE('',#811,#197);
#126=LINE('',#815,#198);
#127=LINE('',#816,#199);
#128=LINE('',#817,#200);
#129=LINE('',#821,#201);
#130=LINE('',#822,#202);
#131=LINE('',#823,#203);
#132=LINE('',#826,#204);
#133=LINE('',#827,#205);
#134=LINE('',#829,#206);
#135=LINE('',#831,#207);
#136=LINE('',#832,#208);
#137=LINE('',#836,#209);
#138=LINE('',#838,#210);
#139=VECTOR('',#571,10.);
#140=VECTOR('',#572,10.);
#141=VECTOR('',#573,10.);
#142=VECTOR('',#574,10.);
#143=VECTOR('',#577,10.);
#144=VECTOR('',#578,10.);
#145=VECTOR('',#579,10.);
#146=VECTOR('',#580,10.);
#147=VECTOR('',#583,10.);
#148=VECTOR('',#584,10.);
#149=VECTOR('',#585,10.);
#150=VECTOR('',#586,10.);
#151=VECTOR('',#587,10.);
#152=VECTOR('',#588,10.);
#153=VECTOR('',#591,10.);
#154=VECTOR('',#592,10.);
#155=VECTOR('',#593,10.);
#156=VECTOR('',#596,10.);
#157=VECTOR('',#597,10.);
#158=VECTOR('',#598,10.);
#159=VECTOR('',#601,10.);
#160=VECTOR('',#602,10.);
#161=VECTOR('',#603,10.);
#162=VECTOR('',#606,10.);
#163=VECTOR('',#607,10.);
#164=VECTOR('',#608,10.);
#165=VECTOR('',#609,10.);
#166=VECTOR('',#612,10.);
#167=VECTOR('',#613,10.);
#168=VECTOR('',#614,10.);
#169=VECTOR('',#617,10.);
#170=VECTOR('',#618,10.);
#171=VECTOR('',#621,10.);
#172=VECTOR('',#622,10.);
#173=VECTOR('',#623,10.);
#174=VECTOR('',#624,10.);
#175=VECTOR('',#627,10.);
#176=VECTOR('',#628,10.);
#177=VECTOR('',#629,10.);
#178=VECTOR('',#632,10.);
#179=VECTOR('',#633,10.);
#180=VECTOR('',#634,10.);
#181=VECTOR('',#635,10.);
#182=VECTOR('',#636,10.);
#183=VECTOR('',#637,10.);
#184=VECTOR('',#638,10.);
#185=VECTOR('',#639,10.);
#186=VECTOR('',#640,10.);
#187=VECTOR('',#641,10.);
#188=VECTOR('',#644,10.);
#189=VECTOR('',#645,10.);
#190=VECTOR('',#646,10.);
#191=VECTOR('',#647,10.);
#192=VECTOR('',#648,10.);
#193=VECTOR('',#651,10.);
#194=VECTOR('',#654,10.);
#195=VECTOR('',#655,10.);
#196=VECTOR('',#658,10.);
#197=VECTOR('',#659,10.);
#198=VECTOR('',#662,10.);
#199=VECTOR('',#663,10.);
#200=VECTOR('',#664,10.);
#201=VECTOR('',#667,10.);
#202=VECTOR('',#668,10.);
#203=VECTOR('',#669,10.);
#204=VECTOR('',#672,10.);
#205=VECTOR('',#673,10.);
#206=VECTOR('',#676,10.);
#207=VECTOR('',#679,10.);
#208=VECTOR('',#680,10.);
#209=VECTOR('',#687,10.);
#210=VECTOR('',#690,10.);
#211=VERTEX_POINT('',#695);
#212=VERTEX_POINT('',#696);
#213=VERTEX_POINT('',#698);
#214=VERTEX_POINT('',#700);
#215=VERTEX_POINT('',#704);
#216=VERTEX_POINT('',#705);
#217=VERTEX_POINT('',#707);
#218=VERTEX_POINT('',#709);
#219=VERTEX_POINT('',#714);
#220=VERTEX_POINT('',#716);
#221=VERTEX_POINT('',#718);
#222=VERTEX_POINT('',#720);
#223=VERTEX_POINT('',#724);
#224=VERTEX_POINT('',#726);
#225=VERTEX_POINT('',#730);
#226=VERTEX_POINT('',#732);
#227=VERTEX_POINT('',#736);
#228=VERTEX_POINT('',#738);
#229=VERTEX_POINT('',#742);
#230=VERTEX_POINT('',#743);
#231=VERTEX_POINT('',#745);
#232=VERTEX_POINT('',#747);
#233=VERTEX_POINT('',#751);
#234=VERTEX_POINT('',#753);
#235=VERTEX_POINT('',#760);
#236=VERTEX_POINT('',#761);
#237=VERTEX_POINT('',#763);
#238=VERTEX_POINT('',#765);
#239=VERTEX_POINT('',#769);
#240=VERTEX_POINT('',#771);
#241=VERTEX_POINT('',#776);
#242=VERTEX_POINT('',#778);
#243=VERTEX_POINT('',#780);
#244=VERTEX_POINT('',#782);
#245=VERTEX_POINT('',#784);
#246=VERTEX_POINT('',#786);
#247=VERTEX_POINT('',#788);
#248=VERTEX_POINT('',#790);
#249=VERTEX_POINT('',#794);
#250=VERTEX_POINT('',#796);
#251=VERTEX_POINT('',#798);
#252=VERTEX_POINT('',#800);
#253=VERTEX_POINT('',#806);
#254=VERTEX_POINT('',#813);
#255=VERTEX_POINT('',#814);
#256=VERTEX_POINT('',#819);
#257=VERTEX_POINT('',#820);
#258=VERTEX_POINT('',#825);
#259=EDGE_CURVE('',#211,#212,#67,.T.);
#260=EDGE_CURVE('',#213,#211,#68,.T.);
#261=EDGE_CURVE('',#213,#214,#69,.T.);
#262=EDGE_CURVE('',#212,#214,#70,.T.);
#263=EDGE_CURVE('',#215,#216,#71,.T.);
#264=EDGE_CURVE('',#217,#215,#72,.T.);
#265=EDGE_CURVE('',#217,#218,#73,.T.);
#266=EDGE_CURVE('',#216,#218,#74,.T.);
#267=EDGE_CURVE('',#218,#213,#75,.T.);
#268=EDGE_CURVE('',#219,#211,#76,.F.);
#269=EDGE_CURVE('',#220,#219,#77,.T.);
#270=EDGE_CURVE('',#221,#220,#78,.F.);
#271=EDGE_CURVE('',#222,#221,#79,.F.);
#272=EDGE_CURVE('',#216,#222,#80,.F.);
#273=EDGE_CURVE('',#223,#214,#81,.F.);
#274=EDGE_CURVE('',#223,#224,#82,.T.);
#275=EDGE_CURVE('',#212,#224,#83,.F.);
#276=EDGE_CURVE('',#225,#215,#84,.F.);
#277=EDGE_CURVE('',#226,#225,#85,.T.);
#278=EDGE_CURVE('',#217,#226,#86,.F.);
#279=EDGE_CURVE('',#224,#227,#87,.F.);
#280=EDGE_CURVE('',#227,#228,#88,.T.);
#281=EDGE_CURVE('',#228,#219,#89,.F.);
#282=EDGE_CURVE('',#229,#230,#90,.T.);
#283=EDGE_CURVE('',#231,#229,#91,.T.);
#284=EDGE_CURVE('',#232,#231,#92,.T.);
#285=EDGE_CURVE('',#230,#232,#93,.T.);
#286=EDGE_CURVE('',#230,#233,#94,.T.);
#287=EDGE_CURVE('',#234,#232,#95,.T.);
#288=EDGE_CURVE('',#233,#234,#96,.F.);
#289=EDGE_CURVE('',#229,#226,#97,.T.);
#290=EDGE_CURVE('',#231,#225,#98,.T.);
#291=EDGE_CURVE('',#235,#236,#99,.T.);
#292=EDGE_CURVE('',#235,#237,#100,.T.);
#293=EDGE_CURVE('',#238,#237,#101,.T.);
#294=EDGE_CURVE('',#236,#238,#102,.T.);
#295=EDGE_CURVE('',#236,#239,#103,.T.);
#296=EDGE_CURVE('',#240,#238,#104,.T.);
#297=EDGE_CURVE('',#239,#240,#105,.F.);
#298=EDGE_CURVE('',#233,#235,#106,.F.);
#299=EDGE_CURVE('',#239,#241,#107,.F.);
#300=EDGE_CURVE('',#242,#241,#108,.T.);
#301=EDGE_CURVE('',#243,#242,#109,.F.);
#302=EDGE_CURVE('',#244,#243,#110,.T.);
#303=EDGE_CURVE('',#244,#245,#111,.F.);
#304=EDGE_CURVE('',#246,#245,#112,.T.);
#305=EDGE_CURVE('',#247,#246,#113,.F.);
#306=EDGE_CURVE('',#248,#247,#114,.T.);
#307=EDGE_CURVE('',#248,#223,#115,.F.);
#308=EDGE_CURVE('',#249,#234,#116,.T.);
#309=EDGE_CURVE('',#250,#249,#117,.T.);
#310=EDGE_CURVE('',#251,#250,#118,.T.);
#311=EDGE_CURVE('',#252,#251,#119,.F.);
#312=EDGE_CURVE('',#237,#252,#120,.T.);
#313=EDGE_CURVE('',#222,#249,#121,.T.);
#314=EDGE_CURVE('',#253,#240,#122,.F.);
#315=EDGE_CURVE('',#253,#241,#123,.F.);
#316=EDGE_CURVE('',#248,#227,#124,.F.);
#317=EDGE_CURVE('',#228,#247,#125,.F.);
#318=EDGE_CURVE('',#254,#255,#126,.T.);
#319=EDGE_CURVE('',#246,#254,#127,.F.);
#320=EDGE_CURVE('',#255,#245,#128,.F.);
#321=EDGE_CURVE('',#256,#257,#129,.T.);
#322=EDGE_CURVE('',#244,#256,#130,.F.);
#323=EDGE_CURVE('',#257,#243,#131,.F.);
#324=EDGE_CURVE('',#258,#253,#132,.T.);
#325=EDGE_CURVE('',#242,#258,#133,.F.);
#326=EDGE_CURVE('',#252,#258,#134,.F.);
#327=EDGE_CURVE('',#255,#256,#135,.F.);
#328=EDGE_CURVE('',#257,#254,#136,.F.);
#329=EDGE_CURVE('',#250,#221,#137,.T.);
#330=EDGE_CURVE('',#220,#251,#138,.F.);
#331=ORIENTED_EDGE('',*,*,#259,.F.);
#332=ORIENTED_EDGE('',*,*,#260,.F.);
#333=ORIENTED_EDGE('',*,*,#261,.T.);
#334=ORIENTED_EDGE('',*,*,#262,.F.);
#335=ORIENTED_EDGE('',*,*,#263,.F.);
#336=ORIENTED_EDGE('',*,*,#264,.F.);
#337=ORIENTED_EDGE('',*,*,#265,.T.);
#338=ORIENTED_EDGE('',*,*,#266,.F.);
#339=ORIENTED_EDGE('',*,*,#266,.T.);
#340=ORIENTED_EDGE('',*,*,#267,.T.);
#341=ORIENTED_EDGE('',*,*,#260,.T.);
#342=ORIENTED_EDGE('',*,*,#268,.F.);
#343=ORIENTED_EDGE('',*,*,#269,.F.);
#344=ORIENTED_EDGE('',*,*,#270,.F.);
#345=ORIENTED_EDGE('',*,*,#271,.F.);
#346=ORIENTED_EDGE('',*,*,#272,.F.);
#347=ORIENTED_EDGE('',*,*,#262,.T.);
#348=ORIENTED_EDGE('',*,*,#273,.F.);
#349=ORIENTED_EDGE('',*,*,#274,.T.);
#350=ORIENTED_EDGE('',*,*,#275,.F.);
#351=ORIENTED_EDGE('',*,*,#264,.T.);
#352=ORIENTED_EDGE('',*,*,#276,.F.);
#353=ORIENTED_EDGE('',*,*,#277,.F.);
#354=ORIENTED_EDGE('',*,*,#278,.F.);
#355=ORIENTED_EDGE('',*,*,#259,.T.);
#356=ORIENTED_EDGE('',*,*,#275,.T.);
#357=ORIENTED_EDGE('',*,*,#279,.T.);
#358=ORIENTED_EDGE('',*,*,#280,.T.);
#359=ORIENTED_EDGE('',*,*,#281,.T.);
#360=ORIENTED_EDGE('',*,*,#268,.T.);
#361=ORIENTED_EDGE('',*,*,#282,.F.);
#362=ORIENTED_EDGE('',*,*,#283,.F.);
#363=ORIENTED_EDGE('',*,*,#284,.F.);
#364=ORIENTED_EDGE('',*,*,#285,.F.);
#365=ORIENTED_EDGE('',*,*,#286,.F.);
#366=ORIENTED_EDGE('',*,*,#285,.T.);
#367=ORIENTED_EDGE('',*,*,#287,.F.);
#368=ORIENTED_EDGE('',*,*,#288,.F.);
#369=ORIENTED_EDGE('',*,*,#283,.T.);
#370=ORIENTED_EDGE('',*,*,#289,.T.);
#371=ORIENTED_EDGE('',*,*,#277,.T.);
#372=ORIENTED_EDGE('',*,*,#290,.F.);
#373=ORIENTED_EDGE('',*,*,#291,.F.);
#374=ORIENTED_EDGE('',*,*,#292,.T.);
#375=ORIENTED_EDGE('',*,*,#293,.F.);
#376=ORIENTED_EDGE('',*,*,#294,.F.);
#377=ORIENTED_EDGE('',*,*,#295,.F.);
#378=ORIENTED_EDGE('',*,*,#294,.T.);
#379=ORIENTED_EDGE('',*,*,#296,.F.);
#380=ORIENTED_EDGE('',*,*,#297,.F.);
#381=ORIENTED_EDGE('',*,*,#286,.T.);
#382=ORIENTED_EDGE('',*,*,#298,.T.);
#383=ORIENTED_EDGE('',*,*,#291,.T.);
#384=ORIENTED_EDGE('',*,*,#295,.T.);
#385=ORIENTED_EDGE('',*,*,#299,.T.);
#386=ORIENTED_EDGE('',*,*,#300,.F.);
#387=ORIENTED_EDGE('',*,*,#301,.F.);
#388=ORIENTED_EDGE('',*,*,#302,.F.);
#389=ORIENTED_EDGE('',*,*,#303,.T.);
#390=ORIENTED_EDGE('',*,*,#304,.F.);
#391=ORIENTED_EDGE('',*,*,#305,.F.);
#392=ORIENTED_EDGE('',*,*,#306,.F.);
#393=ORIENTED_EDGE('',*,*,#307,.T.);
#394=ORIENTED_EDGE('',*,*,#273,.T.);
#395=ORIENTED_EDGE('',*,*,#261,.F.);
#396=ORIENTED_EDGE('',*,*,#267,.F.);
#397=ORIENTED_EDGE('',*,*,#265,.F.);
#398=ORIENTED_EDGE('',*,*,#278,.T.);
#399=ORIENTED_EDGE('',*,*,#289,.F.);
#400=ORIENTED_EDGE('',*,*,#282,.T.);
#401=ORIENTED_EDGE('',*,*,#308,.F.);
#402=ORIENTED_EDGE('',*,*,#309,.F.);
#403=ORIENTED_EDGE('',*,*,#310,.F.);
#404=ORIENTED_EDGE('',*,*,#311,.F.);
#405=ORIENTED_EDGE('',*,*,#312,.F.);
#406=ORIENTED_EDGE('',*,*,#292,.F.);
#407=ORIENTED_EDGE('',*,*,#298,.F.);
#408=ORIENTED_EDGE('',*,*,#288,.T.);
#409=ORIENTED_EDGE('',*,*,#263,.T.);
#410=ORIENTED_EDGE('',*,*,#272,.T.);
#411=ORIENTED_EDGE('',*,*,#313,.T.);
#412=ORIENTED_EDGE('',*,*,#308,.T.);
#413=ORIENTED_EDGE('',*,*,#287,.T.);
#414=ORIENTED_EDGE('',*,*,#284,.T.);
#415=ORIENTED_EDGE('',*,*,#290,.T.);
#416=ORIENTED_EDGE('',*,*,#276,.T.);
#417=ORIENTED_EDGE('',*,*,#297,.T.);
#418=ORIENTED_EDGE('',*,*,#314,.F.);
#419=ORIENTED_EDGE('',*,*,#315,.T.);
#420=ORIENTED_EDGE('',*,*,#299,.F.);
#421=ORIENTED_EDGE('',*,*,#280,.F.);
#422=ORIENTED_EDGE('',*,*,#316,.F.);
#423=ORIENTED_EDGE('',*,*,#306,.T.);
#424=ORIENTED_EDGE('',*,*,#317,.F.);
#425=ORIENTED_EDGE('',*,*,#318,.F.);
#426=ORIENTED_EDGE('',*,*,#319,.F.);
#427=ORIENTED_EDGE('',*,*,#304,.T.);
#428=ORIENTED_EDGE('',*,*,#320,.F.);
#429=ORIENTED_EDGE('',*,*,#321,.F.);
#430=ORIENTED_EDGE('',*,*,#322,.F.);
#431=ORIENTED_EDGE('',*,*,#302,.T.);
#432=ORIENTED_EDGE('',*,*,#323,.F.);
#433=ORIENTED_EDGE('',*,*,#324,.F.);
#434=ORIENTED_EDGE('',*,*,#325,.F.);
#435=ORIENTED_EDGE('',*,*,#300,.T.);
#436=ORIENTED_EDGE('',*,*,#315,.F.);
#437=ORIENTED_EDGE('',*,*,#312,.T.);
#438=ORIENTED_EDGE('',*,*,#326,.T.);
#439=ORIENTED_EDGE('',*,*,#324,.T.);
#440=ORIENTED_EDGE('',*,*,#314,.T.);
#441=ORIENTED_EDGE('',*,*,#296,.T.);
#442=ORIENTED_EDGE('',*,*,#293,.T.);
#443=ORIENTED_EDGE('',*,*,#318,.T.);
#444=ORIENTED_EDGE('',*,*,#327,.T.);
#445=ORIENTED_EDGE('',*,*,#321,.T.);
#446=ORIENTED_EDGE('',*,*,#328,.T.);
#447=ORIENTED_EDGE('',*,*,#316,.T.);
#448=ORIENTED_EDGE('',*,*,#279,.F.);
#449=ORIENTED_EDGE('',*,*,#274,.F.);
#450=ORIENTED_EDGE('',*,*,#307,.F.);
#451=ORIENTED_EDGE('',*,*,#320,.T.);
#452=ORIENTED_EDGE('',*,*,#303,.F.);
#453=ORIENTED_EDGE('',*,*,#322,.T.);
#454=ORIENTED_EDGE('',*,*,#327,.F.);
#455=ORIENTED_EDGE('',*,*,#309,.T.);
#456=ORIENTED_EDGE('',*,*,#313,.F.);
#457=ORIENTED_EDGE('',*,*,#271,.T.);
#458=ORIENTED_EDGE('',*,*,#329,.F.);
#459=ORIENTED_EDGE('',*,*,#311,.T.);
#460=ORIENTED_EDGE('',*,*,#330,.F.);
#461=ORIENTED_EDGE('',*,*,#269,.T.);
#462=ORIENTED_EDGE('',*,*,#281,.F.);
#463=ORIENTED_EDGE('',*,*,#317,.T.);
#464=ORIENTED_EDGE('',*,*,#305,.T.);
#465=ORIENTED_EDGE('',*,*,#319,.T.);
#466=ORIENTED_EDGE('',*,*,#328,.F.);
#467=ORIENTED_EDGE('',*,*,#323,.T.);
#468=ORIENTED_EDGE('',*,*,#301,.T.);
#469=ORIENTED_EDGE('',*,*,#325,.T.);
#470=ORIENTED_EDGE('',*,*,#326,.F.);
#471=ORIENTED_EDGE('',*,*,#310,.T.);
#472=ORIENTED_EDGE('',*,*,#329,.T.);
#473=ORIENTED_EDGE('',*,*,#270,.T.);
#474=ORIENTED_EDGE('',*,*,#330,.T.);
#475=PLANE('',#541);
#476=PLANE('',#542);
#477=PLANE('',#543);
#478=PLANE('',#544);
#479=PLANE('',#545);
#480=PLANE('',#546);
#481=PLANE('',#547);
#482=PLANE('',#548);
#483=PLANE('',#549);
#484=PLANE('',#550);
#485=PLANE('',#551);
#486=PLANE('',#552);
#487=PLANE('',#553);
#488=PLANE('',#554);
#489=PLANE('',#555);
#490=PLANE('',#556);
#491=PLANE('',#557);
#492=PLANE('',#558);
#493=PLANE('',#559);
#494=PLANE('',#560);
#495=PLANE('',#561);
#496=PLANE('',#562);
#497=PLANE('',#563);
#498=PLANE('',#564);
#499=PLANE('',#565);
#500=PLANE('',#566);
#501=ADVANCED_FACE('',(#15),#475,.F.);
#502=ADVANCED_FACE('',(#16),#476,.F.);
#503=ADVANCED_FACE('',(#17),#477,.T.);
#504=ADVANCED_FACE('',(#18),#478,.T.);
#505=ADVANCED_FACE('',(#19),#479,.T.);
#506=ADVANCED_FACE('',(#20),#480,.T.);
#507=ADVANCED_FACE('',(#21),#481,.T.);
#508=ADVANCED_FACE('',(#22),#482,.T.);
#509=ADVANCED_FACE('',(#23),#483,.T.);
#510=ADVANCED_FACE('',(#24),#484,.T.);
#511=ADVANCED_FACE('',(#25),#485,.T.);
#512=ADVANCED_FACE('',(#26),#486,.F.);
#513=ADVANCED_FACE('',(#27),#487,.F.);
#514=ADVANCED_FACE('',(#28),#488,.T.);
#515=ADVANCED_FACE('',(#29),#489,.T.);
#516=ADVANCED_FACE('',(#30),#490,.F.);
#517=ADVANCED_FACE('',(#31),#491,.F.);
#518=ADVANCED_FACE('',(#32),#492,.F.);
#519=ADVANCED_FACE('',(#33),#493,.F.);
#520=ADVANCED_FACE('',(#34),#494,.T.);
#521=ADVANCED_FACE('',(#35),#495,.T.);
#522=ADVANCED_FACE('',(#36),#496,.T.);
#523=ADVANCED_FACE('',(#37),#497,.T.);
#524=ADVANCED_FACE('',(#38),#498,.T.);
#525=ADVANCED_FACE('',(#39),#499,.T.);
#526=ADVANCED_FACE('',(#40),#500,.T.);
#527=CLOSED_SHELL('',(#501,#502,#503,#504,#505,#506,#507,#508,#509,#510,
#511,#512,#513,#514,#515,#516,#517,#518,#519,#520,#521,#522,#523,#524,#525,
#526));
#528=DERIVED_UNIT_ELEMENT(#530,1.);
#529=DERIVED_UNIT_ELEMENT(#845,-3.);
#530=(
MASS_UNIT()
NAMED_UNIT(*)
SI_UNIT(.KILO.,.GRAM.)
);
#531=DERIVED_UNIT((#528,#529));
#532=MEASURE_REPRESENTATION_ITEM('density measure',
POSITIVE_RATIO_MEASURE(7850.),#531);
#533=PROPERTY_DEFINITION_REPRESENTATION(#538,#535);
#534=PROPERTY_DEFINITION_REPRESENTATION(#539,#536);
#535=REPRESENTATION('material name',(#537),#842);
#536=REPRESENTATION('density',(#532),#842);
#537=DESCRIPTIVE_REPRESENTATION_ITEM('Steel','Steel');
#538=PROPERTY_DEFINITION('material property','material name',#852);
#539=PROPERTY_DEFINITION('material property','density of part',#852);
#540=AXIS2_PLACEMENT_3D('',#693,#567,#568);
#541=AXIS2_PLACEMENT_3D('',#694,#569,#570);
#542=AXIS2_PLACEMENT_3D('',#703,#575,#576);
#543=AXIS2_PLACEMENT_3D('',#712,#581,#582);
#544=AXIS2_PLACEMENT_3D('',#723,#589,#590);
#545=AXIS2_PLACEMENT_3D('',#729,#594,#595);
#546=AXIS2_PLACEMENT_3D('',#735,#599,#600);
#547=AXIS2_PLACEMENT_3D('',#741,#604,#605);
#548=AXIS2_PLACEMENT_3D('',#750,#610,#611);
#549=AXIS2_PLACEMENT_3D('',#756,#615,#616);
#550=AXIS2_PLACEMENT_3D('',#759,#619,#620);
#551=AXIS2_PLACEMENT_3D('',#768,#625,#626);
#552=AXIS2_PLACEMENT_3D('',#774,#630,#631);
#553=AXIS2_PLACEMENT_3D('',#793,#642,#643);
#554=AXIS2_PLACEMENT_3D('',#803,#649,#650);
#555=AXIS2_PLACEMENT_3D('',#805,#652,#653);
#556=AXIS2_PLACEMENT_3D('',#809,#656,#657);
#557=AXIS2_PLACEMENT_3D('',#812,#660,#661);
#558=AXIS2_PLACEMENT_3D('',#818,#665,#666);
#559=AXIS2_PLACEMENT_3D('',#824,#670,#671);
#560=AXIS2_PLACEMENT_3D('',#828,#674,#675);
#561=AXIS2_PLACEMENT_3D('',#830,#677,#678);
#562=AXIS2_PLACEMENT_3D('',#833,#681,#682);
#563=AXIS2_PLACEMENT_3D('',#834,#683,#684);
#564=AXIS2_PLACEMENT_3D('',#835,#685,#686);
#565=AXIS2_PLACEMENT_3D('',#837,#688,#689);
#566=AXIS2_PLACEMENT_3D('',#839,#691,#692);
#567=DIRECTION('axis',(0.,0.,1.));
#568=DIRECTION('refdir',(1.,0.,0.));
#569=DIRECTION('center_axis',(1.,0.,0.));
#570=DIRECTION('ref_axis',(0.,-1.,0.));
#571=DIRECTION('',(0.,-1.,0.));
#572=DIRECTION('',(0.,0.,1.));
#573=DIRECTION('',(0.,-1.,0.));
#574=DIRECTION('',(0.,0.,-1.));
#575=DIRECTION('center_axis',(-1.,0.,0.));
#576=DIRECTION('ref_axis',(0.,1.,0.));
#577=DIRECTION('',(0.,1.,0.));
#578=DIRECTION('',(0.,0.,1.));
#579=DIRECTION('',(0.,1.,0.));
#580=DIRECTION('',(0.,0.,-1.));
#581=DIRECTION('center_axis',(0.,1.,0.));
#582=DIRECTION('ref_axis',(1.,0.,0.));
#583=DIRECTION('',(1.,0.,0.));
#584=DIRECTION('',(1.,0.,0.));
#585=DIRECTION('',(0.,0.,1.));
#586=DIRECTION('',(-1.,0.,0.));
#587=DIRECTION('',(0.,0.,1.));
#588=DIRECTION('',(1.,0.,0.));
#589=DIRECTION('center_axis',(7.52693576017055E-17,-1.,0.));
#590=DIRECTION('ref_axis',(1.,7.52693576017055E-17,0.));
#591=DIRECTION('',(1.,7.52693576017055E-17,0.));
#592=DIRECTION('',(0.,0.,1.));
#593=DIRECTION('',(-1.,-7.52693576017055E-17,0.));
#594=DIRECTION('center_axis',(7.52693576017055E-17,-1.,0.));
#595=DIRECTION('ref_axis',(1.,7.52693576017055E-17,0.));
#596=DIRECTION('',(-1.,-7.52693576017055E-17,0.));
#597=DIRECTION('',(0.,0.,1.));
#598=DIRECTION('',(1.,7.52693576017055E-17,0.));
#599=DIRECTION('center_axis',(0.,0.,1.));
#600=DIRECTION('ref_axis',(1.,0.,0.));
#601=DIRECTION('',(0.,1.,0.));
#602=DIRECTION('',(1.,0.,0.));
#603=DIRECTION('',(0.,-1.,0.));
#604=DIRECTION('center_axis',(0.,1.,0.));
#605=DIRECTION('ref_axis',(-1.,0.,0.));
#606=DIRECTION('',(1.,0.,0.));
#607=DIRECTION('',(0.,0.,-1.));
#608=DIRECTION('',(-1.,0.,0.));
#609=DIRECTION('',(0.,0.,1.));
#610=DIRECTION('center_axis',(1.,0.,0.));
#611=DIRECTION('ref_axis',(0.,1.,0.));
#612=DIRECTION('',(0.,-1.,0.));
#613=DIRECTION('',(0.,1.,0.));
#614=DIRECTION('',(0.,0.,-1.));
#615=DIRECTION('center_axis',(1.,0.,0.));
#616=DIRECTION('ref_axis',(0.,1.,0.));
#617=DIRECTION('',(0.,1.,0.));
#618=DIRECTION('',(0.,1.,0.));
#619=DIRECTION('center_axis',(-1.,0.,0.));
#620=DIRECTION('ref_axis',(0.,-1.,0.));
#621=DIRECTION('',(0.,1.,0.));
#622=DIRECTION('',(0.,0.,1.));
#623=DIRECTION('',(0.,-1.,0.));
#624=DIRECTION('',(0.,0.,1.));
#625=DIRECTION('center_axis',(0.,1.,0.));
#626=DIRECTION('ref_axis',(-1.,0.,0.));
#627=DIRECTION('',(1.,0.,0.));
#628=DIRECTION('',(-1.,0.,0.));
#629=DIRECTION('',(0.,0.,-1.));
#630=DIRECTION('center_axis',(0.,0.,-1.));
#631=DIRECTION('ref_axis',(1.,0.,0.));
#632=DIRECTION('',(-1.,0.,0.));
#633=DIRECTION('',(0.,-1.,0.));
#634=DIRECTION('',(-1.,0.,0.));
#635=DIRECTION('',(0.,1.,0.));
#636=DIRECTION('',(1.,0.,0.));
#637=DIRECTION('',(0.,-1.,0.));
#638=DIRECTION('',(-1.,0.,0.));
#639=DIRECTION('',(0.,1.,0.));
#640=DIRECTION('',(1.,0.,0.));
#641=DIRECTION('',(0.,-1.,0.));
#642=DIRECTION('center_axis',(0.,1.,0.));
#643=DIRECTION('ref_axis',(0.,0.,1.));
#644=DIRECTION('',(1.,0.,0.));
#645=DIRECTION('',(0.,0.,1.));
#646=DIRECTION('',(-1.,0.,0.));
#647=DIRECTION('',(0.,0.,1.));
#648=DIRECTION('',(1.,0.,0.));
#649=DIRECTION('center_axis',(0.,0.,1.));
#650=DIRECTION('ref_axis',(1.,0.,0.));
#651=DIRECTION('',(0.,-1.,0.));
#652=DIRECTION('center_axis',(-1.,0.,0.));
#653=DIRECTION('ref_axis',(0.,-1.,0.));
#654=DIRECTION('',(0.,1.,0.));
#655=DIRECTION('',(0.,0.,1.));
#656=DIRECTION('center_axis',(0.,1.,0.));
#657=DIRECTION('ref_axis',(1.,0.,0.));
#658=DIRECTION('',(0.,0.,-1.));
#659=DIRECTION('',(0.,0.,1.));
#660=DIRECTION('center_axis',(0.,-1.,0.));
#661=DIRECTION('ref_axis',(-1.,0.,0.));
#662=DIRECTION('',(-1.,0.,0.));
#663=DIRECTION('',(0.,0.,-1.));
#664=DIRECTION('',(0.,0.,1.));
#665=DIRECTION('center_axis',(0.,1.,0.));
#666=DIRECTION('ref_axis',(1.,0.,0.));
#667=DIRECTION('',(1.,0.,0.));
#668=DIRECTION('',(0.,0.,-1.));
#669=DIRECTION('',(0.,0.,1.));
#670=DIRECTION('center_axis',(0.,-1.,0.));
#671=DIRECTION('ref_axis',(-1.,0.,0.));
#672=DIRECTION('',(-1.,0.,0.));
#673=DIRECTION('',(0.,0.,-1.));
#674=DIRECTION('center_axis',(0.,0.,1.));
#675=DIRECTION('ref_axis',(1.,0.,0.));
#676=DIRECTION('',(0.,-1.,0.));
#677=DIRECTION('center_axis',(0.,0.,1.));
#678=DIRECTION('ref_axis',(1.,0.,0.));
#679=DIRECTION('',(0.,1.,0.));
#680=DIRECTION('',(0.,-1.,0.));
#681=DIRECTION('center_axis',(-1.,0.,0.));
#682=DIRECTION('ref_axis',(0.,-1.,0.));
#683=DIRECTION('center_axis',(-1.,0.,0.));
#684=DIRECTION('ref_axis',(0.,-1.,0.));
#685=DIRECTION('center_axis',(-1.,0.,0.));
#686=DIRECTION('ref_axis',(0.,1.,0.));
#687=DIRECTION('',(0.,1.,0.));
#688=DIRECTION('center_axis',(1.,0.,0.));
#689=DIRECTION('ref_axis',(0.,-1.,0.));
#690=DIRECTION('',(0.,1.,0.));
#691=DIRECTION('center_axis',(0.,0.,-1.));
#692=DIRECTION('ref_axis',(-1.,0.,0.));
#693=CARTESIAN_POINT('',(0.,0.,0.));
#694=CARTESIAN_POINT('Origin',(-86.0000012814999,-28.5,-173.));
#695=CARTESIAN_POINT('',(-86.0000012814999,-28.5,-173.));
#696=CARTESIAN_POINT('',(-86.0000012814999,-30.0000004470348,-173.));
#697=CARTESIAN_POINT('',(-86.0000012814999,-47.25,-173.));
#698=CARTESIAN_POINT('',(-86.0000012814999,-28.5,-180.));
#699=CARTESIAN_POINT('',(-86.0000012814999,-28.5,-176.5));
#700=CARTESIAN_POINT('',(-86.0000012814999,-30.0000004470348,-180.));
#701=CARTESIAN_POINT('',(-86.0000012814999,-28.5,-180.));
#702=CARTESIAN_POINT('',(-86.0000012814999,-30.,-176.5));
#703=CARTESIAN_POINT('Origin',(-103.946856147322,-30.0000004470348,-173.));
#704=CARTESIAN_POINT('',(-103.946856147322,-30.0000004470348,-173.));
#705=CARTESIAN_POINT('',(-103.946856147322,-28.5,-173.));
#706=CARTESIAN_POINT('',(-103.946856147322,-48.0000002235174,-173.));
#707=CARTESIAN_POINT('',(-103.946856147322,-30.0000004470348,-180.));
#708=CARTESIAN_POINT('',(-103.946856147322,-30.,-176.5));
#709=CARTESIAN_POINT('',(-103.946856147322,-28.5,-180.));
#710=CARTESIAN_POINT('',(-103.946856147322,-30.0000004470348,-180.));
#711=CARTESIAN_POINT('',(-103.946856147322,-28.5,-176.5));
#712=CARTESIAN_POINT('Origin',(-110.5,-28.5,-180.));
#713=CARTESIAN_POINT('',(-102.736714357205,-28.5,-180.));
#714=CARTESIAN_POINT('',(-76.5,-28.5,-173.));
#715=CARTESIAN_POINT('',(-95.,-28.5,-173.));
#716=CARTESIAN_POINT('',(-76.5,-28.5,-181.));
#717=CARTESIAN_POINT('',(-76.5,-28.5,-180.));
#718=CARTESIAN_POINT('',(-110.5,-28.5,-181.));
#719=CARTESIAN_POINT('',(-95.,-28.5,-181.));
#720=CARTESIAN_POINT('',(-110.5,-28.5,-173.));
#721=CARTESIAN_POINT('',(-110.5,-28.5,-180.));
#722=CARTESIAN_POINT('',(-95.,-28.5,-173.));
#723=CARTESIAN_POINT('Origin',(-109.,-30.,-180.));
#724=CARTESIAN_POINT('',(-78.,-30.,-180.));
#725=CARTESIAN_POINT('',(-94.25,-30.,-180.));
#726=CARTESIAN_POINT('',(-78.,-30.,-173.));
#727=CARTESIAN_POINT('',(-78.,-30.,-180.));
#728=CARTESIAN_POINT('',(-94.25,-30.,-173.));
#729=CARTESIAN_POINT('Origin',(-109.,-30.,-180.));
#730=CARTESIAN_POINT('',(-109.,-30.,-173.));
#731=CARTESIAN_POINT('',(-94.25,-30.,-173.));
#732=CARTESIAN_POINT('',(-109.,-30.,-180.));
#733=CARTESIAN_POINT('',(-109.,-30.,-180.));
#734=CARTESIAN_POINT('',(-94.25,-30.,-180.));
#735=CARTESIAN_POINT('Origin',(-79.5,-66.,-173.));
#736=CARTESIAN_POINT('',(-78.,-38.0000005811453,-173.));
#737=CARTESIAN_POINT('',(-78.,-44.,-173.));
#738=CARTESIAN_POINT('',(-76.5,-38.0000005811453,-173.));
#739=CARTESIAN_POINT('',(-78.25,-38.0000005811453,-173.));
#740=CARTESIAN_POINT('',(-76.5,-43.25,-173.));
#741=CARTESIAN_POINT('Origin',(-104.000001549721,-99.0000014901161,-180.));
#742=CARTESIAN_POINT('',(-109.,-99.0000014901161,-180.));
#743=CARTESIAN_POINT('',(-104.000001549721,-99.0000014901161,-180.));
#744=CARTESIAN_POINT('',(-91.7500007748604,-99.0000014901161,-180.));
#745=CARTESIAN_POINT('',(-109.,-99.0000014901161,-173.));
#746=CARTESIAN_POINT('',(-109.,-99.0000014901161,-180.));
#747=CARTESIAN_POINT('',(-104.000001549721,-99.0000014901161,-173.));
#748=CARTESIAN_POINT('',(-104.000001549721,-99.0000014901161,-173.));
#749=CARTESIAN_POINT('',(-104.000001549721,-99.0000014901161,-180.));
#750=CARTESIAN_POINT('Origin',(-104.000001549721,-101.5,-180.));
#751=CARTESIAN_POINT('',(-104.000001549721,-100.5,-180.));
#752=CARTESIAN_POINT('',(-104.000001549721,-83.75,-180.));
#753=CARTESIAN_POINT('',(-104.000001549721,-100.5,-173.));
#754=CARTESIAN_POINT('',(-104.000001549721,-101.5,-173.));
#755=CARTESIAN_POINT('',(-104.000001549721,-100.5,-180.));
#756=CARTESIAN_POINT('Origin',(-109.,-110.,-180.));
#757=CARTESIAN_POINT('',(-109.,-110.,-180.));
#758=CARTESIAN_POINT('',(-109.,-88.75,-173.));
#759=CARTESIAN_POINT('Origin',(-89.6150325506612,-99.0000014901161,-180.));
#760=CARTESIAN_POINT('',(-89.6150325506612,-100.5,-180.));
#761=CARTESIAN_POINT('',(-89.6150325506612,-99.0000014901161,-180.));
#762=CARTESIAN_POINT('',(-89.6150325506612,-82.5000007450581,-180.));
#763=CARTESIAN_POINT('',(-89.6150325506612,-100.5,-173.));
#764=CARTESIAN_POINT('',(-89.6150325506612,-100.5,-180.));
#765=CARTESIAN_POINT('',(-89.6150325506612,-99.0000014901161,-173.));
#766=CARTESIAN_POINT('',(-89.6150325506612,-99.0000014901161,-173.));
#767=CARTESIAN_POINT('',(-89.6150325506612,-99.0000014901161,-180.));
#768=CARTESIAN_POINT('Origin',(-77.0000002996065,-99.0000014901161,-180.));
#769=CARTESIAN_POINT('',(-78.,-99.0000014901161,-180.));
#770=CARTESIAN_POINT('',(-78.2500001498032,-99.0000014901161,-180.));
#771=CARTESIAN_POINT('',(-78.,-99.0000014901161,-173.));
#772=CARTESIAN_POINT('',(-77.0000002996065,-99.0000014901161,-173.));
#773=CARTESIAN_POINT('',(-78.,-99.0000014901161,-180.));
#774=CARTESIAN_POINT('Origin',(-79.5,-66.,-180.));
#775=CARTESIAN_POINT('',(-64.,-100.5,-180.));
#776=CARTESIAN_POINT('',(-78.,-91.9258682425534,-180.));
#777=CARTESIAN_POINT('',(-78.,-44.,-180.));
#778=CARTESIAN_POINT('',(-76.5,-91.9258682425534,-180.));
#779=CARTESIAN_POINT('',(-75.5,-91.9258682425534,-180.));
#780=CARTESIAN_POINT('',(-76.5,-79.0000011771917,-180.));
#781=CARTESIAN_POINT('',(-76.5,-43.25,-180.));
#782=CARTESIAN_POINT('',(-78.,-79.0000011771917,-180.));
#783=CARTESIAN_POINT('',(-77.,-79.0000011771917,-180.));
#784=CARTESIAN_POINT('',(-78.,-61.1669792679536,-180.));
#785=CARTESIAN_POINT('',(-78.,-44.,-180.));
#786=CARTESIAN_POINT('',(-76.5,-61.1669792679536,-180.));
#787=CARTESIAN_POINT('',(-75.5,-61.1669792679536,-180.));
#788=CARTESIAN_POINT('',(-76.5,-38.0000005811453,-180.));
#789=CARTESIAN_POINT('',(-76.5,-43.25,-180.));
#790=CARTESIAN_POINT('',(-78.,-38.0000005811453,-180.));
#791=CARTESIAN_POINT('',(-77.,-38.0000005811453,-180.));
#792=CARTESIAN_POINT('',(-78.,-44.,-180.));
#793=CARTESIAN_POINT('Origin',(-48.5,-100.5,-180.));
#794=CARTESIAN_POINT('',(-110.5,-100.5,-173.));
#795=CARTESIAN_POINT('',(-64.,-100.5,-173.));
#796=CARTESIAN_POINT('',(-110.5,-100.5,-181.));
#797=CARTESIAN_POINT('',(-110.5,-100.5,-180.));
#798=CARTESIAN_POINT('',(-76.5,-100.5,-181.));
#799=CARTESIAN_POINT('',(-64.,-100.5,-181.));
#800=CARTESIAN_POINT('',(-76.5,-100.5,-173.));
#801=CARTESIAN_POINT('',(-76.5,-100.5,-180.));
#802=CARTESIAN_POINT('',(-64.,-100.5,-173.));
#803=CARTESIAN_POINT('Origin',(-79.5,-66.,-173.));
#804=CARTESIAN_POINT('',(-110.5,-111.5,-173.));
#805=CARTESIAN_POINT('Origin',(-78.,-22.,-180.));
#806=CARTESIAN_POINT('',(-78.,-91.9258682425534,-173.));
#807=CARTESIAN_POINT('',(-78.,-44.,-173.));
#808=CARTESIAN_POINT('',(-78.,-91.9258682425534,-176.5));
#809=CARTESIAN_POINT('Origin',(-77.,-38.0000005811453,-173.));
#810=CARTESIAN_POINT('',(-78.,-38.0000005811453,-176.5));
#811=CARTESIAN_POINT('',(-76.5,-38.0000005811453,-176.5));
#812=CARTESIAN_POINT('Origin',(-75.5,-61.1669792679536,-173.));
#813=CARTESIAN_POINT('',(-76.5,-61.1669792679536,-173.));
#814=CARTESIAN_POINT('',(-78.,-61.1669792679536,-173.));
#815=CARTESIAN_POINT('',(-77.5,-61.1669792679536,-173.));
#816=CARTESIAN_POINT('',(-76.5,-61.1669792679536,-176.5));
#817=CARTESIAN_POINT('',(-78.,-61.1669792679536,-176.5));
#818=CARTESIAN_POINT('Origin',(-77.,-79.0000011771917,-173.));
#819=CARTESIAN_POINT('',(-78.,-79.0000011771917,-173.));
#820=CARTESIAN_POINT('',(-76.5,-79.0000011771917,-173.));
#821=CARTESIAN_POINT('',(-78.25,-79.0000011771917,-173.));
#822=CARTESIAN_POINT('',(-78.,-79.0000011771917,-176.5));
#823=CARTESIAN_POINT('',(-76.5,-79.0000011771917,-176.5));
#824=CARTESIAN_POINT('Origin',(-75.5,-91.9258682425534,-173.));
#825=CARTESIAN_POINT('',(-76.5,-91.9258682425534,-173.));
#826=CARTESIAN_POINT('',(-77.5,-91.9258682425534,-173.));
#827=CARTESIAN_POINT('',(-76.5,-91.9258682425534,-176.5));
#828=CARTESIAN_POINT('Origin',(-79.5,-66.,-173.));
#829=CARTESIAN_POINT('',(-76.5,-43.25,-173.));
#830=CARTESIAN_POINT('Origin',(-79.5,-66.,-173.));
#831=CARTESIAN_POINT('',(-78.,-44.,-173.));
#832=CARTESIAN_POINT('',(-76.5,-43.25,-173.));
#833=CARTESIAN_POINT('Origin',(-78.,-22.,-180.));
#834=CARTESIAN_POINT('Origin',(-78.,-22.,-180.));
#835=CARTESIAN_POINT('Origin',(-110.5,-111.5,-180.));
#836=CARTESIAN_POINT('',(-110.5,-111.5,-181.));
#837=CARTESIAN_POINT('Origin',(-76.5,-20.5,-180.));
#838=CARTESIAN_POINT('',(-76.5,-43.25,-181.));
#839=CARTESIAN_POINT('Origin',(-79.5,-66.,-181.));
#840=UNCERTAINTY_MEASURE_WITH_UNIT(LENGTH_MEASURE(0.01),#844,
'DISTANCE_ACCURACY_VALUE',
'Maximum model space distance between geometric entities at asserted c
onnectivities');
#841=UNCERTAINTY_MEASURE_WITH_UNIT(LENGTH_MEASURE(0.01),#844,
'DISTANCE_ACCURACY_VALUE',
'Maximum model space distance between geometric entities at asserted c
onnectivities');
#842=(
GEOMETRIC_REPRESENTATION_CONTEXT(3)
GLOBAL_UNCERTAINTY_ASSIGNED_CONTEXT((#840))
GLOBAL_UNIT_ASSIGNED_CONTEXT((#844,#846,#847))
REPRESENTATION_CONTEXT('','3D')
);
#843=(
GEOMETRIC_REPRESENTATION_CONTEXT(3)
GLOBAL_UNCERTAINTY_ASSIGNED_CONTEXT((#841))
GLOBAL_UNIT_ASSIGNED_CONTEXT((#844,#846,#847))
REPRESENTATION_CONTEXT('','3D')
);
#844=(
LENGTH_UNIT()
NAMED_UNIT(*)
SI_UNIT(.MILLI.,.METRE.)
);
#845=(
LENGTH_UNIT()
NAMED_UNIT(*)
SI_UNIT($,.METRE.)
);
#846=(
NAMED_UNIT(*)
PLANE_ANGLE_UNIT()
SI_UNIT($,.RADIAN.)
);
#847=(
NAMED_UNIT(*)
SI_UNIT($,.STERADIAN.)
SOLID_ANGLE_UNIT()
);
#848=SHAPE_DEFINITION_REPRESENTATION(#849,#850);
#849=PRODUCT_DEFINITION_SHAPE('',$,#852);
#850=SHAPE_REPRESENTATION('',(#540),#842);
#851=PRODUCT_DEFINITION_CONTEXT('part definition',#856,'design');
#852=PRODUCT_DEFINITION('2026-05-17-19-26-23-565',
'RaspberryPi_ZeroW2Holder',#853,#851);
#853=PRODUCT_DEFINITION_FORMATION('',$,#858);
#854=PRODUCT_RELATED_PRODUCT_CATEGORY('RaspberryPi_ZeroW2Holder',
'RaspberryPi_ZeroW2Holder',(#858));
#855=APPLICATION_PROTOCOL_DEFINITION('international standard',
'automotive_design',2009,#856);
#856=APPLICATION_CONTEXT(
'Core Data for Automotive Mechanical Design Process');
#857=PRODUCT_CONTEXT('part definition',#856,'mechanical');
#858=PRODUCT('2026-05-17-19-26-23-565','RaspberryPi_ZeroW2Holder',$,(#857));
#859=PRESENTATION_STYLE_ASSIGNMENT((#860));
#860=SURFACE_STYLE_USAGE(.BOTH.,#861);
#861=SURFACE_SIDE_STYLE('',(#862));
#862=SURFACE_STYLE_FILL_AREA(#863);
#863=FILL_AREA_STYLE('Steel - Satin',(#864));
#864=FILL_AREA_STYLE_COLOUR('Steel - Satin',#865);
#865=COLOUR_RGB('Steel - Satin',0.627450980392157,0.627450980392157,0.627450980392157);
ENDSEC;
END-ISO-10303-21;
