ISO-10303-21;
HEADER;
/* Generated by software containing ST-Developer
 * from STEP Tools, Inc. (www.steptools.com) 
 */

FILE_DESCRIPTION(
/* description */ (''),
/* implementation_level */ '2;1');

FILE_NAME(
/* name */ 'TB6600_ConnectorPlate.step',
/* time_stamp */ '2026-05-17T22:22:15+02:00',
/* author */ (''),
/* organization */ (''),
/* preprocessor_version */ 'ST-DEVELOPER v20.1',
/* originating_system */ 'Autodesk Translation Framework v15.8.0.0',
/* authorisation */ '');

FILE_SCHEMA (('AUTOMOTIVE_DESIGN { 1 0 10303 214 3 1 1 }'));
ENDSEC;

DATA;
#10=MECHANICAL_DESIGN_GEOMETRIC_PRESENTATION_REPRESENTATION('',(#13),#719);
#11=SHAPE_REPRESENTATION_RELATIONSHIP('SRR','None',#726,#12);
#12=ADVANCED_BREP_SHAPE_REPRESENTATION('',(#14),#718);
#13=STYLED_ITEM('',(#735),#14);
#14=MANIFOLD_SOLID_BREP('Body1',#435);
#15=PLANE('',#452);
#16=PLANE('',#453);
#17=PLANE('',#454);
#18=PLANE('',#455);
#19=PLANE('',#459);
#20=PLANE('',#460);
#21=PLANE('',#461);
#22=PLANE('',#462);
#23=PLANE('',#467);
#24=PLANE('',#468);
#25=PLANE('',#469);
#26=PLANE('',#470);
#27=PLANE('',#473);
#28=PLANE('',#474);
#29=PLANE('',#475);
#30=PLANE('',#476);
#31=PLANE('',#477);
#32=PLANE('',#478);
#33=FACE_OUTER_BOUND('',#55,.T.);
#34=FACE_OUTER_BOUND('',#56,.T.);
#35=FACE_OUTER_BOUND('',#57,.T.);
#36=FACE_OUTER_BOUND('',#58,.T.);
#37=FACE_OUTER_BOUND('',#59,.T.);
#38=FACE_OUTER_BOUND('',#60,.T.);
#39=FACE_OUTER_BOUND('',#61,.T.);
#40=FACE_OUTER_BOUND('',#62,.T.);
#41=FACE_OUTER_BOUND('',#63,.T.);
#42=FACE_OUTER_BOUND('',#64,.T.);
#43=FACE_OUTER_BOUND('',#65,.T.);
#44=FACE_OUTER_BOUND('',#66,.T.);
#45=FACE_OUTER_BOUND('',#67,.T.);
#46=FACE_OUTER_BOUND('',#68,.T.);
#47=FACE_OUTER_BOUND('',#69,.T.);
#48=FACE_OUTER_BOUND('',#70,.T.);
#49=FACE_OUTER_BOUND('',#71,.T.);
#50=FACE_OUTER_BOUND('',#72,.T.);
#51=FACE_OUTER_BOUND('',#73,.T.);
#52=FACE_OUTER_BOUND('',#74,.T.);
#53=FACE_OUTER_BOUND('',#75,.T.);
#54=FACE_OUTER_BOUND('',#76,.T.);
#55=EDGE_LOOP('',(#289,#290,#291,#292));
#56=EDGE_LOOP('',(#293,#294,#295,#296));
#57=EDGE_LOOP('',(#297,#298,#299,#300));
#58=EDGE_LOOP('',(#301,#302,#303,#304));
#59=EDGE_LOOP('',(#305,#306,#307,#308));
#60=EDGE_LOOP('',(#309,#310,#311,#312));
#61=EDGE_LOOP('',(#313,#314,#315,#316));
#62=EDGE_LOOP('',(#317,#318,#319,#320));
#63=EDGE_LOOP('',(#321,#322,#323,#324));
#64=EDGE_LOOP('',(#325,#326,#327,#328,#329,#330,#331,#332,#333,#334,#335,
#336,#337,#338,#339,#340,#341,#342,#343,#344));
#65=EDGE_LOOP('',(#345,#346,#347,#348));
#66=EDGE_LOOP('',(#349,#350,#351,#352));
#67=EDGE_LOOP('',(#353,#354,#355,#356));
#68=EDGE_LOOP('',(#357,#358,#359,#360));
#69=EDGE_LOOP('',(#361,#362,#363,#364));
#70=EDGE_LOOP('',(#365,#366,#367,#368));
#71=EDGE_LOOP('',(#369,#370,#371,#372));
#72=EDGE_LOOP('',(#373,#374,#375,#376));
#73=EDGE_LOOP('',(#377,#378,#379,#380));
#74=EDGE_LOOP('',(#381,#382,#383,#384));
#75=EDGE_LOOP('',(#385,#386,#387,#388));
#76=EDGE_LOOP('',(#389,#390,#391,#392,#393,#394,#395,#396,#397,#398,#399,
#400,#401,#402,#403,#404,#405,#406,#407,#408));
#77=LINE('',#599,#129);
#78=LINE('',#602,#130);
#79=LINE('',#605,#131);
#80=LINE('',#607,#132);
#81=LINE('',#608,#133);
#82=LINE('',#611,#134);
#83=LINE('',#613,#135);
#84=LINE('',#614,#136);
#85=LINE('',#618,#137);
#86=LINE('',#620,#138);
#87=LINE('',#622,#139);
#88=LINE('',#623,#140);
#89=LINE('',#627,#141);
#90=LINE('',#629,#142);
#91=LINE('',#631,#143);
#92=LINE('',#632,#144);
#93=LINE('',#638,#145);
#94=LINE('',#640,#146);
#95=LINE('',#641,#147);
#96=LINE('',#644,#148);
#97=LINE('',#646,#149);
#98=LINE('',#647,#150);
#99=LINE('',#650,#151);
#100=LINE('',#652,#152);
#101=LINE('',#653,#153);
#102=LINE('',#656,#154);
#103=LINE('',#660,#155);
#104=LINE('',#662,#156);
#105=LINE('',#664,#157);
#106=LINE('',#666,#158);
#107=LINE('',#668,#159);
#108=LINE('',#671,#160);
#109=LINE('',#673,#161);
#110=LINE('',#674,#162);
#111=LINE('',#677,#163);
#112=LINE('',#680,#164);
#113=LINE('',#682,#165);
#114=LINE('',#685,#166);
#115=LINE('',#686,#167);
#116=LINE('',#688,#168);
#117=LINE('',#691,#169);
#118=LINE('',#692,#170);
#119=LINE('',#696,#171);
#120=LINE('',#699,#172);
#121=LINE('',#700,#173);
#122=LINE('',#703,#174);
#123=LINE('',#704,#175);
#124=LINE('',#707,#176);
#125=LINE('',#708,#177);
#126=LINE('',#711,#178);
#127=LINE('',#712,#179);
#128=LINE('',#714,#180);
#129=VECTOR('',#485,10.);
#130=VECTOR('',#488,10.);
#131=VECTOR('',#491,10.);
#132=VECTOR('',#492,10.);
#133=VECTOR('',#493,10.);
#134=VECTOR('',#496,10.);
#135=VECTOR('',#497,10.);
#136=VECTOR('',#498,10.);
#137=VECTOR('',#501,10.);
#138=VECTOR('',#502,10.);
#139=VECTOR('',#503,10.);
#140=VECTOR('',#504,10.);
#141=VECTOR('',#507,10.);
#142=VECTOR('',#508,10.);
#143=VECTOR('',#509,10.);
#144=VECTOR('',#510,10.);
#145=VECTOR('',#519,10.);
#146=VECTOR('',#520,10.);
#147=VECTOR('',#521,10.);
#148=VECTOR('',#524,10.);
#149=VECTOR('',#525,10.);
#150=VECTOR('',#526,10.);
#151=VECTOR('',#529,10.);
#152=VECTOR('',#530,10.);
#153=VECTOR('',#531,10.);
#154=VECTOR('',#534,10.);
#155=VECTOR('',#537,10.);
#156=VECTOR('',#538,10.);
#157=VECTOR('',#539,10.);
#158=VECTOR('',#540,10.);
#159=VECTOR('',#541,10.);
#160=VECTOR('',#544,10.);
#161=VECTOR('',#545,10.);
#162=VECTOR('',#546,10.);
#163=VECTOR('',#549,10.);
#164=VECTOR('',#552,10.);
#165=VECTOR('',#555,10.);
#166=VECTOR('',#558,10.);
#167=VECTOR('',#559,10.);
#168=VECTOR('',#562,10.);
#169=VECTOR('',#565,10.);
#170=VECTOR('',#566,10.);
#171=VECTOR('',#571,10.);
#172=VECTOR('',#574,10.);
#173=VECTOR('',#575,10.);
#174=VECTOR('',#578,10.);
#175=VECTOR('',#579,10.);
#176=VECTOR('',#582,10.);
#177=VECTOR('',#583,10.);
#178=VECTOR('',#586,10.);
#179=VECTOR('',#587,10.);
#180=VECTOR('',#590,10.);
#181=CIRCLE('',#450,2.44999999999999);
#182=CIRCLE('',#451,2.44999999999999);
#183=CIRCLE('',#457,2.45000000000001);
#184=CIRCLE('',#458,2.45000000000001);
#185=CIRCLE('',#463,2.45);
#186=CIRCLE('',#464,2.45);
#187=CIRCLE('',#466,2.45);
#188=CIRCLE('',#472,2.45);
#189=VERTEX_POINT('',#595);
#190=VERTEX_POINT('',#596);
#191=VERTEX_POINT('',#598);
#192=VERTEX_POINT('',#600);
#193=VERTEX_POINT('',#604);
#194=VERTEX_POINT('',#606);
#195=VERTEX_POINT('',#610);
#196=VERTEX_POINT('',#612);
#197=VERTEX_POINT('',#616);
#198=VERTEX_POINT('',#617);
#199=VERTEX_POINT('',#619);
#200=VERTEX_POINT('',#621);
#201=VERTEX_POINT('',#625);
#202=VERTEX_POINT('',#626);
#203=VERTEX_POINT('',#628);
#204=VERTEX_POINT('',#630);
#205=VERTEX_POINT('',#637);
#206=VERTEX_POINT('',#639);
#207=VERTEX_POINT('',#643);
#208=VERTEX_POINT('',#645);
#209=VERTEX_POINT('',#649);
#210=VERTEX_POINT('',#651);
#211=VERTEX_POINT('',#655);
#212=VERTEX_POINT('',#657);
#213=VERTEX_POINT('',#659);
#214=VERTEX_POINT('',#661);
#215=VERTEX_POINT('',#663);
#216=VERTEX_POINT('',#665);
#217=VERTEX_POINT('',#667);
#218=VERTEX_POINT('',#669);
#219=VERTEX_POINT('',#672);
#220=VERTEX_POINT('',#676);
#221=VERTEX_POINT('',#678);
#222=VERTEX_POINT('',#684);
#223=VERTEX_POINT('',#690);
#224=VERTEX_POINT('',#694);
#225=VERTEX_POINT('',#698);
#226=VERTEX_POINT('',#702);
#227=VERTEX_POINT('',#706);
#228=VERTEX_POINT('',#710);
#229=EDGE_CURVE('',#189,#190,#181,.T.);
#230=EDGE_CURVE('',#191,#189,#77,.T.);
#231=EDGE_CURVE('',#192,#191,#182,.T.);
#232=EDGE_CURVE('',#192,#190,#78,.T.);
#233=EDGE_CURVE('',#190,#193,#79,.T.);
#234=EDGE_CURVE('',#194,#192,#80,.T.);
#235=EDGE_CURVE('',#193,#194,#81,.T.);
#236=EDGE_CURVE('',#195,#189,#82,.T.);
#237=EDGE_CURVE('',#196,#195,#83,.T.);
#238=EDGE_CURVE('',#191,#196,#84,.T.);
#239=EDGE_CURVE('',#197,#198,#85,.T.);
#240=EDGE_CURVE('',#199,#197,#86,.T.);
#241=EDGE_CURVE('',#200,#199,#87,.T.);
#242=EDGE_CURVE('',#198,#200,#88,.T.);
#243=EDGE_CURVE('',#201,#202,#89,.T.);
#244=EDGE_CURVE('',#203,#201,#90,.T.);
#245=EDGE_CURVE('',#204,#203,#91,.T.);
#246=EDGE_CURVE('',#204,#202,#92,.T.);
#247=EDGE_CURVE('',#202,#197,#183,.T.);
#248=EDGE_CURVE('',#199,#204,#184,.T.);
#249=EDGE_CURVE('',#205,#194,#93,.T.);
#250=EDGE_CURVE('',#206,#205,#94,.T.);
#251=EDGE_CURVE('',#206,#193,#95,.T.);
#252=EDGE_CURVE('',#207,#200,#96,.T.);
#253=EDGE_CURVE('',#208,#207,#97,.T.);
#254=EDGE_CURVE('',#208,#198,#98,.T.);
#255=EDGE_CURVE('',#201,#209,#99,.T.);
#256=EDGE_CURVE('',#209,#210,#100,.T.);
#257=EDGE_CURVE('',#203,#210,#101,.T.);
#258=EDGE_CURVE('',#211,#206,#102,.T.);
#259=EDGE_CURVE('',#211,#212,#185,.T.);
#260=EDGE_CURVE('',#213,#212,#103,.T.);
#261=EDGE_CURVE('',#214,#213,#104,.T.);
#262=EDGE_CURVE('',#215,#214,#105,.T.);
#263=EDGE_CURVE('',#216,#215,#106,.T.);
#264=EDGE_CURVE('',#217,#216,#107,.T.);
#265=EDGE_CURVE('',#217,#218,#186,.T.);
#266=EDGE_CURVE('',#209,#218,#108,.T.);
#267=EDGE_CURVE('',#219,#208,#109,.T.);
#268=EDGE_CURVE('',#195,#219,#110,.T.);
#269=EDGE_CURVE('',#217,#220,#111,.T.);
#270=EDGE_CURVE('',#221,#220,#187,.T.);
#271=EDGE_CURVE('',#218,#221,#112,.T.);
#272=EDGE_CURVE('',#210,#221,#113,.T.);
#273=EDGE_CURVE('',#222,#207,#114,.T.);
#274=EDGE_CURVE('',#219,#222,#115,.T.);
#275=EDGE_CURVE('',#196,#222,#116,.T.);
#276=EDGE_CURVE('',#223,#205,#117,.T.);
#277=EDGE_CURVE('',#211,#223,#118,.T.);
#278=EDGE_CURVE('',#224,#223,#188,.T.);
#279=EDGE_CURVE('',#212,#224,#119,.T.);
#280=EDGE_CURVE('',#225,#224,#120,.T.);
#281=EDGE_CURVE('',#213,#225,#121,.T.);
#282=EDGE_CURVE('',#226,#225,#122,.T.);
#283=EDGE_CURVE('',#214,#226,#123,.T.);
#284=EDGE_CURVE('',#227,#226,#124,.T.);
#285=EDGE_CURVE('',#215,#227,#125,.T.);
#286=EDGE_CURVE('',#228,#227,#126,.T.);
#287=EDGE_CURVE('',#216,#228,#127,.T.);
#288=EDGE_CURVE('',#220,#228,#128,.T.);
#289=ORIENTED_EDGE('',*,*,#229,.F.);
#290=ORIENTED_EDGE('',*,*,#230,.F.);
#291=ORIENTED_EDGE('',*,*,#231,.F.);
#292=ORIENTED_EDGE('',*,*,#232,.T.);
#293=ORIENTED_EDGE('',*,*,#233,.F.);
#294=ORIENTED_EDGE('',*,*,#232,.F.);
#295=ORIENTED_EDGE('',*,*,#234,.F.);
#296=ORIENTED_EDGE('',*,*,#235,.F.);
#297=ORIENTED_EDGE('',*,*,#236,.F.);
#298=ORIENTED_EDGE('',*,*,#237,.F.);
#299=ORIENTED_EDGE('',*,*,#238,.F.);
#300=ORIENTED_EDGE('',*,*,#230,.T.);
#301=ORIENTED_EDGE('',*,*,#239,.F.);
#302=ORIENTED_EDGE('',*,*,#240,.F.);
#303=ORIENTED_EDGE('',*,*,#241,.F.);
#304=ORIENTED_EDGE('',*,*,#242,.F.);
#305=ORIENTED_EDGE('',*,*,#243,.F.);
#306=ORIENTED_EDGE('',*,*,#244,.F.);
#307=ORIENTED_EDGE('',*,*,#245,.F.);
#308=ORIENTED_EDGE('',*,*,#246,.T.);
#309=ORIENTED_EDGE('',*,*,#247,.F.);
#310=ORIENTED_EDGE('',*,*,#246,.F.);
#311=ORIENTED_EDGE('',*,*,#248,.F.);
#312=ORIENTED_EDGE('',*,*,#240,.T.);
#313=ORIENTED_EDGE('',*,*,#235,.T.);
#314=ORIENTED_EDGE('',*,*,#249,.F.);
#315=ORIENTED_EDGE('',*,*,#250,.F.);
#316=ORIENTED_EDGE('',*,*,#251,.T.);
#317=ORIENTED_EDGE('',*,*,#242,.T.);
#318=ORIENTED_EDGE('',*,*,#252,.F.);
#319=ORIENTED_EDGE('',*,*,#253,.F.);
#320=ORIENTED_EDGE('',*,*,#254,.T.);
#321=ORIENTED_EDGE('',*,*,#244,.T.);
#322=ORIENTED_EDGE('',*,*,#255,.T.);
#323=ORIENTED_EDGE('',*,*,#256,.T.);
#324=ORIENTED_EDGE('',*,*,#257,.F.);
#325=ORIENTED_EDGE('',*,*,#236,.T.);
#326=ORIENTED_EDGE('',*,*,#229,.T.);
#327=ORIENTED_EDGE('',*,*,#233,.T.);
#328=ORIENTED_EDGE('',*,*,#251,.F.);
#329=ORIENTED_EDGE('',*,*,#258,.F.);
#330=ORIENTED_EDGE('',*,*,#259,.T.);
#331=ORIENTED_EDGE('',*,*,#260,.F.);
#332=ORIENTED_EDGE('',*,*,#261,.F.);
#333=ORIENTED_EDGE('',*,*,#262,.F.);
#334=ORIENTED_EDGE('',*,*,#263,.F.);
#335=ORIENTED_EDGE('',*,*,#264,.F.);
#336=ORIENTED_EDGE('',*,*,#265,.T.);
#337=ORIENTED_EDGE('',*,*,#266,.F.);
#338=ORIENTED_EDGE('',*,*,#255,.F.);
#339=ORIENTED_EDGE('',*,*,#243,.T.);
#340=ORIENTED_EDGE('',*,*,#247,.T.);
#341=ORIENTED_EDGE('',*,*,#239,.T.);
#342=ORIENTED_EDGE('',*,*,#254,.F.);
#343=ORIENTED_EDGE('',*,*,#267,.F.);
#344=ORIENTED_EDGE('',*,*,#268,.F.);
#345=ORIENTED_EDGE('',*,*,#265,.F.);
#346=ORIENTED_EDGE('',*,*,#269,.T.);
#347=ORIENTED_EDGE('',*,*,#270,.F.);
#348=ORIENTED_EDGE('',*,*,#271,.F.);
#349=ORIENTED_EDGE('',*,*,#266,.T.);
#350=ORIENTED_EDGE('',*,*,#271,.T.);
#351=ORIENTED_EDGE('',*,*,#272,.F.);
#352=ORIENTED_EDGE('',*,*,#256,.F.);
#353=ORIENTED_EDGE('',*,*,#267,.T.);
#354=ORIENTED_EDGE('',*,*,#253,.T.);
#355=ORIENTED_EDGE('',*,*,#273,.F.);
#356=ORIENTED_EDGE('',*,*,#274,.F.);
#357=ORIENTED_EDGE('',*,*,#237,.T.);
#358=ORIENTED_EDGE('',*,*,#268,.T.);
#359=ORIENTED_EDGE('',*,*,#274,.T.);
#360=ORIENTED_EDGE('',*,*,#275,.F.);
#361=ORIENTED_EDGE('',*,*,#258,.T.);
#362=ORIENTED_EDGE('',*,*,#250,.T.);
#363=ORIENTED_EDGE('',*,*,#276,.F.);
#364=ORIENTED_EDGE('',*,*,#277,.F.);
#365=ORIENTED_EDGE('',*,*,#259,.F.);
#366=ORIENTED_EDGE('',*,*,#277,.T.);
#367=ORIENTED_EDGE('',*,*,#278,.F.);
#368=ORIENTED_EDGE('',*,*,#279,.F.);
#369=ORIENTED_EDGE('',*,*,#260,.T.);
#370=ORIENTED_EDGE('',*,*,#279,.T.);
#371=ORIENTED_EDGE('',*,*,#280,.F.);
#372=ORIENTED_EDGE('',*,*,#281,.F.);
#373=ORIENTED_EDGE('',*,*,#261,.T.);
#374=ORIENTED_EDGE('',*,*,#281,.T.);
#375=ORIENTED_EDGE('',*,*,#282,.F.);
#376=ORIENTED_EDGE('',*,*,#283,.F.);
#377=ORIENTED_EDGE('',*,*,#262,.T.);
#378=ORIENTED_EDGE('',*,*,#283,.T.);
#379=ORIENTED_EDGE('',*,*,#284,.F.);
#380=ORIENTED_EDGE('',*,*,#285,.F.);
#381=ORIENTED_EDGE('',*,*,#263,.T.);
#382=ORIENTED_EDGE('',*,*,#285,.T.);
#383=ORIENTED_EDGE('',*,*,#286,.F.);
#384=ORIENTED_EDGE('',*,*,#287,.F.);
#385=ORIENTED_EDGE('',*,*,#264,.T.);
#386=ORIENTED_EDGE('',*,*,#287,.T.);
#387=ORIENTED_EDGE('',*,*,#288,.F.);
#388=ORIENTED_EDGE('',*,*,#269,.F.);
#389=ORIENTED_EDGE('',*,*,#238,.T.);
#390=ORIENTED_EDGE('',*,*,#275,.T.);
#391=ORIENTED_EDGE('',*,*,#273,.T.);
#392=ORIENTED_EDGE('',*,*,#252,.T.);
#393=ORIENTED_EDGE('',*,*,#241,.T.);
#394=ORIENTED_EDGE('',*,*,#248,.T.);
#395=ORIENTED_EDGE('',*,*,#245,.T.);
#396=ORIENTED_EDGE('',*,*,#257,.T.);
#397=ORIENTED_EDGE('',*,*,#272,.T.);
#398=ORIENTED_EDGE('',*,*,#270,.T.);
#399=ORIENTED_EDGE('',*,*,#288,.T.);
#400=ORIENTED_EDGE('',*,*,#286,.T.);
#401=ORIENTED_EDGE('',*,*,#284,.T.);
#402=ORIENTED_EDGE('',*,*,#282,.T.);
#403=ORIENTED_EDGE('',*,*,#280,.T.);
#404=ORIENTED_EDGE('',*,*,#278,.T.);
#405=ORIENTED_EDGE('',*,*,#276,.T.);
#406=ORIENTED_EDGE('',*,*,#249,.T.);
#407=ORIENTED_EDGE('',*,*,#234,.T.);
#408=ORIENTED_EDGE('',*,*,#231,.T.);
#409=CYLINDRICAL_SURFACE('',#449,2.44999999999999);
#410=CYLINDRICAL_SURFACE('',#456,2.45000000000001);
#411=CYLINDRICAL_SURFACE('',#465,2.45);
#412=CYLINDRICAL_SURFACE('',#471,2.45);
#413=ADVANCED_FACE('',(#33),#409,.F.);
#414=ADVANCED_FACE('',(#34),#15,.F.);
#415=ADVANCED_FACE('',(#35),#16,.F.);
#416=ADVANCED_FACE('',(#36),#17,.F.);
#417=ADVANCED_FACE('',(#37),#18,.F.);
#418=ADVANCED_FACE('',(#38),#410,.F.);
#419=ADVANCED_FACE('',(#39),#19,.T.);
#420=ADVANCED_FACE('',(#40),#20,.T.);
#421=ADVANCED_FACE('',(#41),#21,.T.);
#422=ADVANCED_FACE('',(#42),#22,.F.);
#423=ADVANCED_FACE('',(#43),#411,.F.);
#424=ADVANCED_FACE('',(#44),#23,.T.);
#425=ADVANCED_FACE('',(#45),#24,.T.);
#426=ADVANCED_FACE('',(#46),#25,.T.);
#427=ADVANCED_FACE('',(#47),#26,.T.);
#428=ADVANCED_FACE('',(#48),#412,.F.);
#429=ADVANCED_FACE('',(#49),#27,.T.);
#430=ADVANCED_FACE('',(#50),#28,.T.);
#431=ADVANCED_FACE('',(#51),#29,.T.);
#432=ADVANCED_FACE('',(#52),#30,.T.);
#433=ADVANCED_FACE('',(#53),#31,.T.);
#434=ADVANCED_FACE('',(#54),#32,.T.);
#435=CLOSED_SHELL('',(#413,#414,#415,#416,#417,#418,#419,#420,#421,#422,
#423,#424,#425,#426,#427,#428,#429,#430,#431,#432,#433,#434));
#436=DERIVED_UNIT_ELEMENT(#438,1.);
#437=DERIVED_UNIT_ELEMENT(#721,-3.);
#438=(
MASS_UNIT()
NAMED_UNIT(*)
SI_UNIT(.KILO.,.GRAM.)
);
#439=DERIVED_UNIT((#436,#437));
#440=MEASURE_REPRESENTATION_ITEM('density measure',
POSITIVE_RATIO_MEASURE(7850.),#439);
#441=PROPERTY_DEFINITION_REPRESENTATION(#446,#443);
#442=PROPERTY_DEFINITION_REPRESENTATION(#447,#444);
#443=REPRESENTATION('material name',(#445),#718);
#444=REPRESENTATION('density',(#440),#718);
#445=DESCRIPTIVE_REPRESENTATION_ITEM('Steel','Steel');
#446=PROPERTY_DEFINITION('material property','material name',#728);
#447=PROPERTY_DEFINITION('material property','density of part',#728);
#448=AXIS2_PLACEMENT_3D('',#593,#479,#480);
#449=AXIS2_PLACEMENT_3D('',#594,#481,#482);
#450=AXIS2_PLACEMENT_3D('',#597,#483,#484);
#451=AXIS2_PLACEMENT_3D('',#601,#486,#487);
#452=AXIS2_PLACEMENT_3D('',#603,#489,#490);
#453=AXIS2_PLACEMENT_3D('',#609,#494,#495);
#454=AXIS2_PLACEMENT_3D('',#615,#499,#500);
#455=AXIS2_PLACEMENT_3D('',#624,#505,#506);
#456=AXIS2_PLACEMENT_3D('',#633,#511,#512);
#457=AXIS2_PLACEMENT_3D('',#634,#513,#514);
#458=AXIS2_PLACEMENT_3D('',#635,#515,#516);
#459=AXIS2_PLACEMENT_3D('',#636,#517,#518);
#460=AXIS2_PLACEMENT_3D('',#642,#522,#523);
#461=AXIS2_PLACEMENT_3D('',#648,#527,#528);
#462=AXIS2_PLACEMENT_3D('',#654,#532,#533);
#463=AXIS2_PLACEMENT_3D('',#658,#535,#536);
#464=AXIS2_PLACEMENT_3D('',#670,#542,#543);
#465=AXIS2_PLACEMENT_3D('',#675,#547,#548);
#466=AXIS2_PLACEMENT_3D('',#679,#550,#551);
#467=AXIS2_PLACEMENT_3D('',#681,#553,#554);
#468=AXIS2_PLACEMENT_3D('',#683,#556,#557);
#469=AXIS2_PLACEMENT_3D('',#687,#560,#561);
#470=AXIS2_PLACEMENT_3D('',#689,#563,#564);
#471=AXIS2_PLACEMENT_3D('',#693,#567,#568);
#472=AXIS2_PLACEMENT_3D('',#695,#569,#570);
#473=AXIS2_PLACEMENT_3D('',#697,#572,#573);
#474=AXIS2_PLACEMENT_3D('',#701,#576,#577);
#475=AXIS2_PLACEMENT_3D('',#705,#580,#581);
#476=AXIS2_PLACEMENT_3D('',#709,#584,#585);
#477=AXIS2_PLACEMENT_3D('',#713,#588,#589);
#478=AXIS2_PLACEMENT_3D('',#715,#591,#592);
#479=DIRECTION('axis',(0.,0.,1.));
#480=DIRECTION('refdir',(1.,0.,0.));
#481=DIRECTION('center_axis',(0.,1.,0.));
#482=DIRECTION('ref_axis',(1.,0.,0.));
#483=DIRECTION('center_axis',(-3.37230243729891E-14,-1.,3.77475828372553E-15));
#484=DIRECTION('ref_axis',(1.,0.,0.));
#485=DIRECTION('',(0.,1.,0.));
#486=DIRECTION('center_axis',(3.37230243729891E-14,1.,-3.77475828372553E-15));
#487=DIRECTION('ref_axis',(1.,0.,0.));
#488=DIRECTION('',(0.,1.,0.));
#489=DIRECTION('center_axis',(1.,0.,-3.99129632598833E-15));
#490=DIRECTION('ref_axis',(-3.99129632598833E-15,0.,-1.));
#491=DIRECTION('',(3.99129632598833E-15,3.77475828372539E-15,1.));
#492=DIRECTION('',(-3.99129632598833E-15,-3.77475828372539E-15,-1.));
#493=DIRECTION('',(3.09708135112082E-58,-1.,7.75958760805341E-44));
#494=DIRECTION('center_axis',(-1.,0.,0.));
#495=DIRECTION('ref_axis',(0.,0.,1.));
#496=DIRECTION('',(0.,-3.77475828372553E-15,-1.));
#497=DIRECTION('',(0.,1.,-7.75958760805341E-44));
#498=DIRECTION('',(0.,3.77475828372553E-15,1.));
#499=DIRECTION('center_axis',(-1.,0.,0.));
#500=DIRECTION('ref_axis',(0.,0.,1.));
#501=DIRECTION('',(0.,-3.77475828372553E-15,-1.));
#502=DIRECTION('',(0.,1.,0.));
#503=DIRECTION('',(0.,3.77475828372553E-15,1.));
#504=DIRECTION('',(0.,-1.,-4.01413622596097E-46));
#505=DIRECTION('center_axis',(1.,0.,0.));
#506=DIRECTION('ref_axis',(0.,0.,-1.));
#507=DIRECTION('',(0.,3.77475828372553E-15,1.));
#508=DIRECTION('',(0.,1.,4.01413622596097E-46));
#509=DIRECTION('',(0.,-3.77475828372553E-15,-1.));
#510=DIRECTION('',(0.,1.,0.));
#511=DIRECTION('center_axis',(0.,1.,0.));
#512=DIRECTION('ref_axis',(1.,0.,0.));
#513=DIRECTION('center_axis',(-3.37230243729891E-14,-1.,3.77475828372553E-15));
#514=DIRECTION('ref_axis',(1.,0.,0.));
#515=DIRECTION('center_axis',(3.37230243729891E-14,1.,-3.77475828372553E-15));
#516=DIRECTION('ref_axis',(1.,0.,0.));
#517=DIRECTION('center_axis',(-2.38268699046669E-30,7.75958760805341E-44,
1.));
#518=DIRECTION('ref_axis',(-1.,3.43575055137914E-14,-2.38268699046669E-30));
#519=DIRECTION('',(-1.,3.43575055137914E-14,-2.38268699046669E-30));
#520=DIRECTION('',(-3.25665420556712E-14,-1.,0.));
#521=DIRECTION('',(-1.,3.43575055137914E-14,-2.38268699046669E-30));
#522=DIRECTION('center_axis',(-1.2325951644172E-32,4.01413622596097E-46,
-1.));
#523=DIRECTION('ref_axis',(1.,-3.37230243729891E-14,-1.2325951644172E-32));
#524=DIRECTION('',(1.,-3.37230243729891E-14,-1.2325951644172E-32));
#525=DIRECTION('',(-3.25665420556712E-14,-1.,0.));
#526=DIRECTION('',(1.,-3.37230243729891E-14,-1.2325951644172E-32));
#527=DIRECTION('center_axis',(-1.2325951644172E-32,4.01413622596097E-46,
-1.));
#528=DIRECTION('ref_axis',(1.,-3.37230243729891E-14,-1.2325951644172E-32));
#529=DIRECTION('',(1.,-3.37230243729891E-14,-1.2325951644172E-32));
#530=DIRECTION('',(-3.25665420556712E-14,-1.,0.));
#531=DIRECTION('',(1.,-3.37230243729891E-14,-1.2325951644172E-32));
#532=DIRECTION('center_axis',(-3.37230243729891E-14,-1.,3.77475828372553E-15));
#533=DIRECTION('ref_axis',(1.,-3.37230243729891E-14,-1.2325951644168E-32));
#534=DIRECTION('',(1.27308591555863E-28,3.77475828372553E-15,1.));
#535=DIRECTION('center_axis',(-3.37230243729891E-14,-1.,3.77475828372553E-15));
#536=DIRECTION('ref_axis',(-1.,3.37230243729891E-14,1.23259516441697E-32));
#537=DIRECTION('',(-1.27308591555863E-28,-3.77475828372553E-15,-1.));
#538=DIRECTION('',(-1.,3.43575055137914E-14,-2.38268699046669E-30));
#539=DIRECTION('',(1.14957158487302E-28,3.40849715210373E-15,1.));
#540=DIRECTION('',(1.,-3.37230243729891E-14,-1.2325951644172E-32));
#541=DIRECTION('',(-1.995906561124E-15,-3.77475828372546E-15,-1.));
#542=DIRECTION('center_axis',(-3.37230243729891E-14,-1.,3.77475828372553E-15));
#543=DIRECTION('ref_axis',(1.,-3.37230243729891E-14,-1.2325951644168E-32));
#544=DIRECTION('',(1.27308591555863E-28,3.77475828372553E-15,1.));
#545=DIRECTION('',(-1.27308591555863E-28,-3.77475828372553E-15,-1.));
#546=DIRECTION('',(-1.,3.43575055137914E-14,-2.38268699046669E-30));
#547=DIRECTION('center_axis',(-3.25665420556712E-14,-1.,0.));
#548=DIRECTION('ref_axis',(1.,-3.25665420556712E-14,-1.2325951644168E-32));
#549=DIRECTION('',(-3.25665420556712E-14,-1.,0.));
#550=DIRECTION('center_axis',(3.37230243729891E-14,1.,-3.77475828372553E-15));
#551=DIRECTION('ref_axis',(1.,-3.37230243729891E-14,-1.2325951644168E-32));
#552=DIRECTION('',(-3.25665420556712E-14,-1.,0.));
#553=DIRECTION('center_axis',(1.,-3.25665420556712E-14,-4.37776715892219E-30));
#554=DIRECTION('ref_axis',(1.27308591555863E-28,3.77475828372553E-15,1.));
#555=DIRECTION('',(1.27308591555863E-28,3.77475828372553E-15,1.));
#556=DIRECTION('center_axis',(-1.,3.25665420556712E-14,4.37776715892221E-30));
#557=DIRECTION('ref_axis',(-1.27308591555863E-28,-3.77475828372553E-15,
-1.));
#558=DIRECTION('',(-1.27308591555863E-28,-3.77475828372553E-15,-1.));
#559=DIRECTION('',(-3.25665420556712E-14,-1.,0.));
#560=DIRECTION('center_axis',(-2.38268699046669E-30,7.75958760805341E-44,
1.));
#561=DIRECTION('ref_axis',(-1.,3.43575055137914E-14,-2.38268699046669E-30));
#562=DIRECTION('',(-1.,3.43575055137914E-14,-2.38268699046669E-30));
#563=DIRECTION('center_axis',(1.,-3.25665420556712E-14,-4.37776715892221E-30));
#564=DIRECTION('ref_axis',(1.27308591555863E-28,3.77475828372553E-15,1.));
#565=DIRECTION('',(1.27308591555863E-28,3.77475828372553E-15,1.));
#566=DIRECTION('',(-3.25665420556712E-14,-1.,0.));
#567=DIRECTION('center_axis',(-3.25665420556712E-14,-1.,0.));
#568=DIRECTION('ref_axis',(-1.,3.25665420556712E-14,1.23259516441697E-32));
#569=DIRECTION('center_axis',(3.37230243729891E-14,1.,-3.77475828372553E-15));
#570=DIRECTION('ref_axis',(-1.,3.37230243729891E-14,1.23259516441697E-32));
#571=DIRECTION('',(-3.25665420556712E-14,-1.,0.));
#572=DIRECTION('center_axis',(-1.,3.25665420556712E-14,4.37776715892219E-30));
#573=DIRECTION('ref_axis',(-1.27308591555863E-28,-3.77475828372553E-15,
-1.));
#574=DIRECTION('',(-1.27308591555863E-28,-3.77475828372553E-15,-1.));
#575=DIRECTION('',(-3.25665420556712E-14,-1.,0.));
#576=DIRECTION('center_axis',(-2.38268699046669E-30,7.75958760805341E-44,
1.));
#577=DIRECTION('ref_axis',(-1.,3.43575055137914E-14,-2.38268699046669E-30));
#578=DIRECTION('',(-1.,3.43575055137914E-14,-2.38268699046669E-30));
#579=DIRECTION('',(-3.25665420556712E-14,-1.,0.));
#580=DIRECTION('center_axis',(1.,-3.25665420556712E-14,-3.95419263668073E-30));
#581=DIRECTION('ref_axis',(1.14957158487302E-28,3.40849715210373E-15,1.));
#582=DIRECTION('',(1.14957158487302E-28,3.40849715210373E-15,1.));
#583=DIRECTION('',(-3.25665420556712E-14,-1.,0.));
#584=DIRECTION('center_axis',(-1.2325951644172E-32,4.01413622596097E-46,
-1.));
#585=DIRECTION('ref_axis',(1.,-3.37230243729891E-14,-1.2325951644172E-32));
#586=DIRECTION('',(1.,-3.37230243729891E-14,-1.2325951644172E-32));
#587=DIRECTION('',(-3.25665420556712E-14,-1.,0.));
#588=DIRECTION('center_axis',(-1.,3.25665420556712E-14,1.99590656112388E-15));
#589=DIRECTION('ref_axis',(-1.995906561124E-15,-3.77475828372546E-15,-1.));
#590=DIRECTION('',(-1.995906561124E-15,-3.77475828372546E-15,-1.));
#591=DIRECTION('center_axis',(-3.37230243729891E-14,-1.,3.77475828372553E-15));
#592=DIRECTION('ref_axis',(1.,-3.37230243729891E-14,-1.2325951644168E-32));
#593=CARTESIAN_POINT('',(0.,0.,0.));
#594=CARTESIAN_POINT('Origin',(-88.5060018003846,-235.006531378478,-87.4511057617387));
#595=CARTESIAN_POINT('',(-90.9560018003846,-232.006531378477,-87.4511057617387));
#596=CARTESIAN_POINT('',(-86.0560018003846,-232.006531378477,-87.4511057617387));
#597=CARTESIAN_POINT('Origin',(-88.5060018003846,-232.006531378478,-87.4511057617387));
#598=CARTESIAN_POINT('',(-90.9560018003846,-235.006531378478,-87.4511057617387));
#599=CARTESIAN_POINT('',(-90.9560018003846,-235.006531378478,-87.4511057617387));
#600=CARTESIAN_POINT('',(-86.0560018003846,-235.006531378478,-87.4511057617387));
#601=CARTESIAN_POINT('Origin',(-88.5060018003846,-235.006531378478,-87.4511057617387));
#602=CARTESIAN_POINT('',(-86.0560018003846,-235.006531378478,-87.4511057617387));
#603=CARTESIAN_POINT('Origin',(-86.0560018003846,-235.006531378478,-83.0005295721585));
#604=CARTESIAN_POINT('',(-86.0560018003846,-232.006531378477,-83.0005295721576));
#605=CARTESIAN_POINT('',(-86.0560018003847,-232.006531378477,-107.250397849671));
#606=CARTESIAN_POINT('',(-86.0560018003846,-235.006531378478,-83.0005295721585));
#607=CARTESIAN_POINT('',(-86.0560018003847,-235.006531378477,-107.250397849671));
#608=CARTESIAN_POINT('',(-86.0560018003846,-233.506531378478,-83.0005295721576));
#609=CARTESIAN_POINT('Origin',(-90.9560018003846,-235.006531378478,-87.4511057617387));
#610=CARTESIAN_POINT('',(-90.9560018003846,-232.006531378477,-83.0005295721585));
#611=CARTESIAN_POINT('',(-90.9560018003846,-232.006531378477,-109.475685944461));
#612=CARTESIAN_POINT('',(-90.9560018003846,-235.006531378478,-83.0005295721585));
#613=CARTESIAN_POINT('',(-90.9560018003846,-233.506531378478,-83.0005295721576));
#614=CARTESIAN_POINT('',(-90.9560018003846,-235.006531378477,-109.475685944461));
#615=CARTESIAN_POINT('Origin',(-90.9560018063129,-235.006531378478,-180.000002682209));
#616=CARTESIAN_POINT('',(-90.9560018063129,-232.006531378477,-175.550529572159));
#617=CARTESIAN_POINT('',(-90.9560018063129,-232.006531378477,-180.000002682209));
#618=CARTESIAN_POINT('',(-90.9560018063129,-232.006531378477,-155.750134404696));
#619=CARTESIAN_POINT('',(-90.9560018063129,-235.006531378478,-175.550529572159));
#620=CARTESIAN_POINT('',(-90.9560018063129,-235.006531378478,-175.550529572159));
#621=CARTESIAN_POINT('',(-90.9560018063129,-235.006531378478,-180.000002682209));
#622=CARTESIAN_POINT('',(-90.9560018063129,-235.006531378477,-155.750134404696));
#623=CARTESIAN_POINT('',(-90.9560018063129,-233.506531378477,-180.000002682208));
#624=CARTESIAN_POINT('Origin',(-86.0560018063129,-235.006531378478,-175.550529572159));
#625=CARTESIAN_POINT('',(-86.0560018063129,-232.006531378478,-180.000002682209));
#626=CARTESIAN_POINT('',(-86.0560018063129,-232.006531378477,-175.550529572159));
#627=CARTESIAN_POINT('',(-86.0560018063129,-232.006531378477,-153.525397849671));
#628=CARTESIAN_POINT('',(-86.0560018063129,-235.006531378478,-180.000002682209));
#629=CARTESIAN_POINT('',(-86.0560018063129,-233.506531378477,-180.000002682208));
#630=CARTESIAN_POINT('',(-86.0560018063129,-235.006531378478,-175.550529572159));
#631=CARTESIAN_POINT('',(-86.0560018063129,-235.006531378477,-153.525397849671));
#632=CARTESIAN_POINT('',(-86.0560018063129,-235.006531378478,-175.550529572159));
#633=CARTESIAN_POINT('Origin',(-88.5060018063129,-235.006531378478,-175.550529572159));
#634=CARTESIAN_POINT('Origin',(-88.5060018063129,-232.006531378478,-175.550529572159));
#635=CARTESIAN_POINT('Origin',(-88.5060018063129,-235.006531378478,-175.550529572159));
#636=CARTESIAN_POINT('Origin',(-62.9560018063208,-232.006531378478,-83.0005295721576));
#637=CARTESIAN_POINT('',(-62.9560018063209,-235.006531378478,-83.0005295721576));
#638=CARTESIAN_POINT('',(-43.0060018063209,-235.006531378479,-83.0005295721576));
#639=CARTESIAN_POINT('',(-62.9560018063208,-232.006531378478,-83.0005295721576));
#640=CARTESIAN_POINT('',(-62.9560018063208,-232.006531378478,-83.0005295721576));
#641=CARTESIAN_POINT('',(-43.0060018063208,-232.006531378479,-83.0005295721576));
#642=CARTESIAN_POINT('Origin',(-99.0000014752228,-232.006531378477,-180.000002682208));
#643=CARTESIAN_POINT('',(-99.0000014752229,-235.006531378477,-180.000002682208));
#644=CARTESIAN_POINT('',(-99.0000014752229,-235.006531378477,-180.000002682208));
#645=CARTESIAN_POINT('',(-99.0000014752228,-232.006531378477,-180.000002682208));
#646=CARTESIAN_POINT('',(-99.0000014752228,-232.006531378477,-180.000002682208));
#647=CARTESIAN_POINT('',(-99.0000014752228,-232.006531378477,-180.000002682208));
#648=CARTESIAN_POINT('Origin',(-99.0000014752228,-232.006531378477,-180.000002682208));
#649=CARTESIAN_POINT('',(-62.9560018063207,-232.006531378478,-180.000002682208));
#650=CARTESIAN_POINT('',(-99.0000014752228,-232.006531378477,-180.000002682208));
#651=CARTESIAN_POINT('',(-62.9560018063208,-235.006531378478,-180.000002682208));
#652=CARTESIAN_POINT('',(-62.9560018063207,-232.006531378478,-180.000002682208));
#653=CARTESIAN_POINT('',(-99.0000014752229,-235.006531378477,-180.000002682208));
#654=CARTESIAN_POINT('Origin',(-71.0030016407718,-232.006531378478,-131.500266127183));
#655=CARTESIAN_POINT('',(-62.9560018063208,-232.006531378478,-87.4505295721576));
#656=CARTESIAN_POINT('',(-62.9560018063208,-232.006531378478,-87.4505295721576));
#657=CARTESIAN_POINT('',(-58.0560018063208,-232.006531378478,-87.4505295721576));
#658=CARTESIAN_POINT('Origin',(-60.5060018063208,-232.006531378478,-87.4505295721576));
#659=CARTESIAN_POINT('',(-58.0560018063208,-232.006531378478,-83.0005295721576));
#660=CARTESIAN_POINT('',(-58.0560018063208,-232.006531378478,-83.0005295721576));
#661=CARTESIAN_POINT('',(-43.0060018063208,-232.006531378479,-83.0005295721576));
#662=CARTESIAN_POINT('',(-43.0060018063208,-232.006531378479,-83.0005295721576));
#663=CARTESIAN_POINT('',(-43.0060018063208,-232.006531378479,-180.000002682208));
#664=CARTESIAN_POINT('',(-43.0060018063208,-232.006531378479,-180.000002682208));
#665=CARTESIAN_POINT('',(-58.0560018063208,-232.006531378478,-180.000002682208));
#666=CARTESIAN_POINT('',(-99.0000014752228,-232.006531378477,-180.000002682208));
#667=CARTESIAN_POINT('',(-58.0560018063207,-232.006531378478,-175.550529572158));
#668=CARTESIAN_POINT('',(-58.0560018063207,-232.006531378478,-175.550529572158));
#669=CARTESIAN_POINT('',(-62.9560018063207,-232.006531378478,-175.550529572158));
#670=CARTESIAN_POINT('Origin',(-60.5060018063207,-232.006531378478,-175.550529572158));
#671=CARTESIAN_POINT('',(-62.9560018063207,-232.006531378478,-180.000529572158));
#672=CARTESIAN_POINT('',(-99.0000014752228,-232.006531378477,-83.0005295721576));
#673=CARTESIAN_POINT('',(-99.0000014752228,-232.006531378477,-83.0005295721576));
#674=CARTESIAN_POINT('',(-43.0060018063208,-232.006531378479,-83.0005295721576));
#675=CARTESIAN_POINT('Origin',(-60.5060018063207,-232.006531378478,-175.550529572158));
#676=CARTESIAN_POINT('',(-58.0560018063208,-235.006531378478,-175.550529572158));
#677=CARTESIAN_POINT('',(-58.0560018063207,-232.006531378478,-175.550529572158));
#678=CARTESIAN_POINT('',(-62.9560018063208,-235.006531378478,-175.550529572158));
#679=CARTESIAN_POINT('Origin',(-60.5060018063208,-235.006531378478,-175.550529572158));
#680=CARTESIAN_POINT('',(-62.9560018063207,-232.006531378478,-175.550529572158));
#681=CARTESIAN_POINT('Origin',(-62.9560018063207,-232.006531378478,-180.000002682208));
#682=CARTESIAN_POINT('',(-62.9560018063208,-235.006531378478,-180.000529572158));
#683=CARTESIAN_POINT('Origin',(-99.0000014752228,-232.006531378477,-83.0005295721576));
#684=CARTESIAN_POINT('',(-99.0000014752229,-235.006531378477,-83.0005295721576));
#685=CARTESIAN_POINT('',(-99.0000014752229,-235.006531378477,-83.0005295721576));
#686=CARTESIAN_POINT('',(-99.0000014752228,-232.006531378477,-83.0005295721576));
#687=CARTESIAN_POINT('Origin',(-62.9560018063208,-232.006531378478,-83.0005295721576));
#688=CARTESIAN_POINT('',(-43.0060018063209,-235.006531378479,-83.0005295721576));
#689=CARTESIAN_POINT('Origin',(-62.9560018063208,-232.006531378478,-87.4505295721576));
#690=CARTESIAN_POINT('',(-62.9560018063209,-235.006531378478,-87.4505295721576));
#691=CARTESIAN_POINT('',(-62.9560018063209,-235.006531378478,-87.4505295721576));
#692=CARTESIAN_POINT('',(-62.9560018063208,-232.006531378478,-87.4505295721576));
#693=CARTESIAN_POINT('Origin',(-60.5060018063208,-232.006531378478,-87.4505295721576));
#694=CARTESIAN_POINT('',(-58.0560018063209,-235.006531378478,-87.4505295721576));
#695=CARTESIAN_POINT('Origin',(-60.5060018063209,-235.006531378478,-87.4505295721576));
#696=CARTESIAN_POINT('',(-58.0560018063208,-232.006531378478,-87.4505295721576));
#697=CARTESIAN_POINT('Origin',(-58.0560018063208,-232.006531378478,-83.0005295721576));
#698=CARTESIAN_POINT('',(-58.0560018063209,-235.006531378478,-83.0005295721576));
#699=CARTESIAN_POINT('',(-58.0560018063209,-235.006531378478,-83.0005295721576));
#700=CARTESIAN_POINT('',(-58.0560018063208,-232.006531378478,-83.0005295721576));
#701=CARTESIAN_POINT('Origin',(-43.0060018063208,-232.006531378479,-83.0005295721576));
#702=CARTESIAN_POINT('',(-43.0060018063209,-235.006531378479,-83.0005295721576));
#703=CARTESIAN_POINT('',(-43.0060018063209,-235.006531378479,-83.0005295721576));
#704=CARTESIAN_POINT('',(-43.0060018063208,-232.006531378479,-83.0005295721576));
#705=CARTESIAN_POINT('Origin',(-43.0060018063208,-232.006531378479,-180.000002682208));
#706=CARTESIAN_POINT('',(-43.0060018063209,-235.006531378479,-180.000002682208));
#707=CARTESIAN_POINT('',(-43.0060018063209,-235.006531378479,-180.000002682208));
#708=CARTESIAN_POINT('',(-43.0060018063208,-232.006531378479,-180.000002682208));
#709=CARTESIAN_POINT('Origin',(-58.0560018063207,-232.006531378478,-180.000002682208));
#710=CARTESIAN_POINT('',(-58.0560018063208,-235.006531378478,-180.000002682208));
#711=CARTESIAN_POINT('',(-99.0000014752229,-235.006531378477,-180.000002682208));
#712=CARTESIAN_POINT('',(-58.0560018063208,-232.006531378478,-180.000002682208));
#713=CARTESIAN_POINT('Origin',(-58.0560018063207,-232.006531378478,-175.550529572158));
#714=CARTESIAN_POINT('',(-58.0560018063208,-235.006531378478,-175.550529572158));
#715=CARTESIAN_POINT('Origin',(-71.0030016407719,-235.006531378478,-131.500266127183));
#716=UNCERTAINTY_MEASURE_WITH_UNIT(LENGTH_MEASURE(0.01),#720,
'DISTANCE_ACCURACY_VALUE',
'Maximum model space distance between geometric entities at asserted c
onnectivities');
#717=UNCERTAINTY_MEASURE_WITH_UNIT(LENGTH_MEASURE(0.01),#720,
'DISTANCE_ACCURACY_VALUE',
'Maximum model space distance between geometric entities at asserted c
onnectivities');
#718=(
GEOMETRIC_REPRESENTATION_CONTEXT(3)
GLOBAL_UNCERTAINTY_ASSIGNED_CONTEXT((#716))
GLOBAL_UNIT_ASSIGNED_CONTEXT((#720,#722,#723))
REPRESENTATION_CONTEXT('','3D')
);
#719=(
GEOMETRIC_REPRESENTATION_CONTEXT(3)
GLOBAL_UNCERTAINTY_ASSIGNED_CONTEXT((#717))
GLOBAL_UNIT_ASSIGNED_CONTEXT((#720,#722,#723))
REPRESENTATION_CONTEXT('','3D')
);
#720=(
LENGTH_UNIT()
NAMED_UNIT(*)
SI_UNIT(.MILLI.,.METRE.)
);
#721=(
LENGTH_UNIT()
NAMED_UNIT(*)
SI_UNIT($,.METRE.)
);
#722=(
NAMED_UNIT(*)
PLANE_ANGLE_UNIT()
SI_UNIT($,.RADIAN.)
);
#723=(
NAMED_UNIT(*)
SI_UNIT($,.STERADIAN.)
SOLID_ANGLE_UNIT()
);
#724=SHAPE_DEFINITION_REPRESENTATION(#725,#726);
#725=PRODUCT_DEFINITION_SHAPE('',$,#728);
#726=SHAPE_REPRESENTATION('',(#448),#718);
#727=PRODUCT_DEFINITION_CONTEXT('part definition',#732,'design');
#728=PRODUCT_DEFINITION('2026-05-17-19-27-13-635',
'TB6600_ConnectorPlate',#729,#727);
#729=PRODUCT_DEFINITION_FORMATION('',$,#734);
#730=PRODUCT_RELATED_PRODUCT_CATEGORY('TB6600_ConnectorPlate',
'TB6600_ConnectorPlate',(#734));
#731=APPLICATION_PROTOCOL_DEFINITION('international standard',
'automotive_design',2009,#732);
#732=APPLICATION_CONTEXT(
'Core Data for Automotive Mechanical Design Process');
#733=PRODUCT_CONTEXT('part definition',#732,'mechanical');
#734=PRODUCT('2026-05-17-19-27-13-635','TB6600_ConnectorPlate',$,(#733));
#735=PRESENTATION_STYLE_ASSIGNMENT((#736));
#736=SURFACE_STYLE_USAGE(.BOTH.,#737);
#737=SURFACE_SIDE_STYLE('',(#738));
#738=SURFACE_STYLE_FILL_AREA(#739);
#739=FILL_AREA_STYLE('Steel - Satin',(#740));
#740=FILL_AREA_STYLE_COLOUR('Steel - Satin',#741);
#741=COLOUR_RGB('Steel - Satin',0.627450980392157,0.627450980392157,0.627450980392157);
ENDSEC;
END-ISO-10303-21;
